<svg width="24" height="24" viewBox="0 0 24 24" fill="none" xmlns="http://www.w3.org/2000/svg">
<g clip-path="url(#clip0_63_237)">
<path fill-rule="evenodd" clip-rule="evenodd" d="M21.9375 13.7258L19.3575 12L21.9375 10.2743V13.7258ZM13.0312 21.0413V16.2315L17.5027 13.2413L21.1118 15.6547L13.0312 21.0413ZM12 14.4398L8.35275 12L12 9.56025L15.648 12L12 14.4398ZM10.9688 21.0413L2.88825 15.6547L6.498 13.2413L10.9688 16.2315V21.0413ZM2.0625 10.2743L4.64325 12L2.0625 13.7258V10.2743ZM10.9688 2.95875V7.7685L6.498 10.7595L2.88825 8.34525L10.9688 2.95875ZM13.0312 2.95875L21.1118 8.34525L17.5027 10.7595L13.0312 7.7685V2.95875ZM23.991 8.2095C23.9888 8.19375 23.985 8.1795 23.9827 8.1645C23.9775 8.13525 23.9722 8.106 23.9647 8.07825C23.9602 8.061 23.9535 8.0445 23.9482 8.028C23.94 8.0025 23.9317 7.97775 23.922 7.953C23.9152 7.93575 23.907 7.9185 23.8987 7.90275C23.8882 7.87875 23.877 7.85625 23.8635 7.8345C23.8545 7.818 23.844 7.80225 23.8342 7.7865C23.8207 7.76475 23.8065 7.74375 23.7908 7.7235C23.7795 7.7085 23.7675 7.6935 23.7555 7.67925C23.739 7.65975 23.7217 7.641 23.7037 7.623C23.6902 7.6095 23.6775 7.59525 23.6633 7.58325C23.6438 7.566 23.6242 7.5495 23.6047 7.53375C23.589 7.52175 23.574 7.50975 23.5582 7.4985C23.5522 7.49475 23.547 7.4895 23.541 7.48575L12.5723 0.17325C12.2258 -0.05775 11.775 -0.05775 11.4278 0.17325L0.45975 7.48575C0.45375 7.4895 0.4485 7.49475 0.4425 7.4985C0.426 7.50975 0.411 7.52175 0.396 7.53375C0.37575 7.5495 0.35625 7.566 0.3375 7.58325C0.32325 7.59525 0.30975 7.6095 0.29625 7.623C0.27825 7.641 0.261 7.65975 0.24525 7.67925C0.2325 7.6935 0.2205 7.7085 0.20925 7.7235C0.19425 7.74375 0.18 7.76475 0.1665 7.7865C0.156 7.80225 0.14625 7.818 0.1365 7.8345C0.12375 7.85625 0.1125 7.87875 0.10125 7.90275C0.09375 7.9185 0.0855 7.93575 0.07875 7.953C0.06825 7.97775 0.06 8.0025 0.05175 8.028C0.0465 8.0445 0.0405 8.061 0.036 8.07825C0.0285 8.106 0.02325 8.13525 0.018 8.1645C0.015 8.1795 0.01125 8.19375 0.00975 8.2095C0.00375 8.253 0 8.298 0 8.34375V15.6562C0 15.7012 0.00375 15.7463 0.00975 15.7913C0.01125 15.8055 0.015 15.8205 0.018 15.8355C0.02325 15.8648 0.0285 15.8933 0.036 15.9218C0.0405 15.939 0.0465 15.9555 0.05175 15.972C0.06 15.9967 0.06825 16.0222 0.07875 16.0477C0.0855 16.0642 0.09375 16.0807 0.10125 16.0972C0.1125 16.1205 0.12375 16.143 0.1365 16.1663C0.14625 16.182 0.156 16.1978 0.1665 16.2135C0.18 16.2353 0.19425 16.2555 0.20925 16.2758C0.2205 16.2915 0.2325 16.3065 0.24525 16.3207C0.261 16.3395 0.27825 16.359 0.29625 16.3762C0.30975 16.3905 0.32325 16.404 0.3375 16.4167C0.35625 16.434 0.37575 16.4505 0.396 16.4662C0.411 16.4782 0.426 16.4903 0.4425 16.5015C0.4485 16.5053 0.45375 16.5105 0.45975 16.5142L11.4278 23.8267C11.601 23.9422 11.8005 24 12 24C12.1995 24 12.399 23.9422 12.5723 23.8267L23.541 16.5142C23.547 16.5105 23.5522 16.5053 23.5582 16.5015C23.574 16.4903 23.589 16.4782 23.6047 16.4662C23.6242 16.4505 23.6438 16.434 23.6633 16.4167C23.6775 16.404 23.6902 16.3905 23.7037 16.3762C23.7217 16.359 23.739 16.3395 23.7555 16.3207C23.7675 16.3065 23.7795 16.2915 23.7908 16.2758C23.8065 16.2555 23.8207 16.2353 23.8342 16.2135C23.844 16.1978 23.8545 16.182 23.8635 16.1663C23.877 16.143 23.8882 16.1205 23.8987 16.0972C23.907 16.0807 23.9152 16.0642 23.922 16.0477C23.9317 16.0222 23.94 15.9967 23.9482 15.972C23.9535 15.9555 23.9602 15.939 23.9647 15.9218C23.9722 15.8933 23.9775 15.8648 23.9827 15.8355C23.985 15.8205 23.9888 15.8055 23.991 15.7913C23.997 15.7463 24 15.7012 24 15.6562V8.34375C24 8.298 23.997 8.253 23.991 8.2095Z" fill="white"/>
</g>
<defs>
<clipPath id="clip0_63_237">
<rect width="24" height="24" fill="white"/>
</clipPath>
</defs>
</svg>
