<svg width="24" height="24" viewBox="0 0 24 24" fill="none" xmlns="http://www.w3.org/2000/svg">
<path d="M11.9414 2C10.4401 2 9.01978 2.34128 7.74023 2.9375C7.73184 2.93505 7.72323 2.93212 7.71484 2.92969L7.70703 2.95508C4.30798 4.55452 1.94141 8.00365 1.94141 12C1.94141 17.511 6.4304 22 11.9414 22C17.4524 22 21.9414 17.511 21.9414 12C21.9414 6.489 17.4524 2 11.9414 2ZM11.9414 4C13.6578 4 15.1565 4.65418 16.457 5.56836C15.8255 6.19598 15.0899 6.75111 14.2793 7.20312C13.218 5.92323 11.9266 4.9041 10.5684 4.14062C11.0134 4.05787 11.4674 4 11.9414 4ZM7.97656 5.14453C9.52619 5.72761 11.083 6.68429 12.3359 8.03125C10.2557 8.66293 7.87272 8.62473 5.48047 7.52539C6.1445 6.56764 6.99342 5.75401 7.97656 5.14453ZM17.9551 6.86328C18.8127 7.86855 19.3514 9.08696 19.627 10.4336C18.5041 10.2954 17.3587 10.3607 16.2363 10.5879C16.0083 9.97097 15.7308 9.38806 15.4141 8.83984C16.3576 8.28275 17.2162 7.61429 17.9551 6.86328ZM4.4707 9.37109C7.65039 10.8933 10.875 10.7834 13.6133 9.71875C13.8824 10.1696 14.1183 10.6472 14.3145 11.1543C11.1808 12.3798 8.48507 14.9596 7.41602 18.4277C5.36417 16.9819 3.94141 14.7103 3.94141 12C3.94141 11.0665 4.17903 10.2029 4.4707 9.37109ZM17.8008 12.3867C18.4863 12.3744 19.1551 12.4923 19.8184 12.6094C19.6182 15.1473 18.2761 17.355 16.2949 18.6816C16.7552 17.3533 17.1101 15.6054 16.9004 13.4746C16.8686 13.1518 16.8193 12.8383 16.7637 12.5293C16.8793 12.5059 16.9935 12.4662 17.1094 12.4473C17.3421 12.4093 17.5723 12.3908 17.8008 12.3867ZM14.832 13.1348C14.8596 13.3128 14.8921 13.4886 14.9102 13.6719C15.2478 17.1029 14.0553 19.1573 13.5918 19.8223C13.0605 19.9351 12.5099 20 11.9414 20C10.9684 20 10.0625 19.7649 9.20117 19.4492C9.9615 16.5051 12.2191 14.2596 14.832 13.1348Z" fill="white"/>
</svg>
