<svg width="16" height="24" viewBox="0 0 16 24" fill="none" xmlns="http://www.w3.org/2000/svg">
<g clip-path="url(#clip0_34_109)">
<path d="M4 24C6.20703 24 8 22.209 8 20V16H4C1.79297 16 0 17.791 0 20C0 22.209 1.79297 24 4 24Z" fill="#0ACF83"/>
<path d="M0 12C0 9.79297 1.79297 8 4 8H8V16H4C1.79297 16 0 14.209 0 12Z" fill="#A259FF"/>
<path d="M0 4C0 1.79297 1.79297 0 4 0H8V8H4C1.79297 8 0 6.20898 0 4Z" fill="#F24E1E"/>
<path d="M8 0H12C14.207 0 16 1.79297 16 4C16 6.20898 14.209 8 12 8H8V0Z" fill="#FF7262"/>
<path d="M16 12C16 14.209 14.209 16 12 16C9.79102 16 8 14.209 8 12C8 9.79297 9.79102 8 12 8C14.209 8 16 9.79297 16 12Z" fill="#1ABCFE"/>
</g>
<defs>
<clipPath id="clip0_34_109">
<rect width="16" height="24" fill="white"/>
</clipPath>
</defs>
</svg>
