<svg width="18" height="20" viewBox="0 0 18 20" fill="none" xmlns="http://www.w3.org/2000/svg">
<g clip-path="url(#clip0_33_40)">
<path fill-rule="evenodd" clip-rule="evenodd" d="M17.6351 0L16.0286 17.998L8.80697 20L1.60482 18.0013L0 0H17.6351Z" fill="#E44D26"/>
<path fill-rule="evenodd" clip-rule="evenodd" d="M8.81665 18.4701L14.6532 16.8522L16.0253 1.47137H8.81665V18.4701Z" fill="#F16529"/>
<path fill-rule="evenodd" clip-rule="evenodd" d="M5.69499 5.88702H8.81836V3.67999H3.28125L3.33333 4.27244L3.87533 10.3564H8.8151V8.14777H5.89681L5.69499 5.88702ZM6.19141 11.4599H3.97624L4.28548 14.9267L8.80859 16.1816L8.81836 16.1784V13.8818L8.80859 13.8851L6.34928 13.221L6.19141 11.4599Z" fill="#EBEBEB"/>
<path fill-rule="evenodd" clip-rule="evenodd" d="M8.8103 10.3565H11.5284L11.2729 13.2194L8.8103 13.8835V16.18L13.3367 14.9252L13.3692 14.5524L13.8884 8.74025L13.9421 8.14781H8.8103V10.3565ZM8.8103 5.88218V5.88706H14.1423L14.1863 5.39065L14.2872 4.27085L14.3393 3.67841H8.8103V5.88218Z" fill="white"/>
</g>
<defs>
<clipPath id="clip0_33_40">
<rect width="17.6351" height="20" fill="white"/>
</clipPath>
</defs>
</svg>
