<svg width="96" height="33" viewBox="0 0 96 33" fill="none" xmlns="http://www.w3.org/2000/svg">
<g clip-path="url(#clip0_39_11)">
<path d="M16.7999 5.18408H16.3199L15.2159 6.52808C14.5439 6.04808 13.1039 5.18408 11.1839 5.18408C7.34391 5.18408 5.13591 8.49608 5.13591 11.7601C5.13591 13.6321 5.85591 15.1681 7.29591 16.1761C8.20791 16.8481 9.40791 17.1841 10.8479 17.5201L12.0959 17.8561C13.7759 18.3361 16.3199 18.9601 16.3199 22.0801C16.3199 24.6721 14.7359 26.8321 11.6159 26.8321C8.83191 26.8321 7.34391 25.0081 6.86391 24.3841C5.95191 23.1361 5.75991 21.9361 5.51991 20.6401H4.60791L4.79991 27.3601H5.51991L6.67191 25.7761C8.06391 27.0721 9.64791 27.7441 11.5679 27.7441C15.8399 27.7441 18.0959 24.1441 18.0959 20.2561C18.0959 15.3601 14.6399 14.4481 12.5279 13.8241L11.3759 13.5361C8.78391 12.8161 6.91191 12.3361 6.91191 9.93608C6.91191 7.24808 9.21591 6.00008 11.1359 6.00008C12.2879 6.00008 13.4879 6.43208 14.4479 7.29608C15.6959 8.44808 15.9359 9.60008 16.1759 10.8961H16.9919L16.7999 5.18408Z" fill="white"/>
<path d="M40.8 6.19211V5.56812H34.368L29.52 21.6001L24.624 5.56812H17.856V6.19211H20.544V26.6881H17.952V27.3121H24.096V26.6881H21.264V6.57611L27.744 27.3121H28.56L34.848 6.81611V26.6881H32.016V27.3121H41.04V26.6881H38.16V6.19211H40.8Z" fill="white"/>
<path d="M51.5038 6.19211V5.56812H42.5278V6.19211H45.2158V26.6881H42.5758V27.3121H51.5038V26.6881H48.8158V6.19211H51.5038Z" fill="white"/>
<path d="M65.9522 26.6881H62.9762V6.19211H63.7922C65.3762 6.19211 66.4322 6.14411 67.6322 7.29612C68.4962 8.01612 69.6002 10.9441 69.9842 12.4321H70.4642L69.9842 5.56812H52.3202L52.0322 12.4321H52.6082C52.8482 10.9441 53.6642 8.16012 55.0562 7.05612C56.0162 6.24011 56.7842 6.24012 58.6082 6.24012H59.4722V26.7361H56.3522V27.3601H66.0002V26.6881H65.9522Z" fill="white"/>
<path d="M85.1038 16.6081V26.6881H82.3678V27.3121H91.3438V26.6881H88.6558V6.19211H91.2478V5.56812H82.2718V6.19211H85.1038V15.7441H76.5118V6.19211H79.1998V5.56812H70.1758V6.19211H72.8638V26.6881H70.2238V27.3121H79.2958V26.6881H76.5118V16.6081H85.1038Z" fill="white"/>
<path d="M0 32.688V0.96V0H96V32.688H0ZM1.968 30.72H94.08V1.92H1.968V30.72Z" fill="white"/>
</g>
<defs>
<clipPath id="clip0_39_11">
<rect width="96" height="32.688" fill="white"/>
</clipPath>
</defs>
</svg>
