<svg width="24" height="34" viewBox="0 0 24 34" fill="none" xmlns="http://www.w3.org/2000/svg">
<path d="M17.6547 4.77197H17.124L15.9035 6.25789C15.1605 5.72721 13.5684 4.77197 11.4457 4.77197C7.2002 4.77197 4.75905 8.43371 4.75905 12.0424C4.75905 14.112 5.55508 15.8102 7.14714 16.9247C8.15544 17.6676 9.48215 18.0391 11.0742 18.4106L12.454 18.7821C14.3114 19.3128 17.124 20.0027 17.124 23.4521C17.124 26.3178 15.3728 28.7059 11.9233 28.7059C8.84533 28.7059 7.2002 26.6893 6.66952 25.9994C5.66121 24.6196 5.44894 23.2929 5.1836 21.8601H4.17529L4.38757 29.2897H5.1836L6.45724 27.5384C7.99623 28.9713 9.7475 29.7142 11.8702 29.7142C16.5933 29.7142 19.0876 25.7341 19.0876 21.4355C19.0876 16.0225 15.2666 15.0142 12.9316 14.3243L11.658 14.0059C8.79226 13.2099 6.72259 12.6792 6.72259 10.0258C6.72259 7.05392 9.26988 5.67414 11.3926 5.67414C12.6663 5.67414 13.993 6.15176 15.0544 7.10699C16.4341 8.38064 16.6995 9.65429 16.9648 11.0871H17.867L17.6547 4.77197Z" fill="white"/>
<rect x="1" y="1" width="21.2632" height="32" stroke="white" stroke-width="2"/>
</svg>
