<svg width="85" height="34" viewBox="0 0 85 34" fill="none" xmlns="http://www.w3.org/2000/svg">
<path d="M9.47686 0.344197L6.08079 15.6265H3.32723L0 0.344197H2.93714L4.7958 10.8766L6.70035 0.344197H9.47686Z" fill="white"/>
<path d="M18.4851 15.6265H15.5939L15.089 12.6205H12.3814L11.8307 15.6265H9.16888L12.2437 0.344197H15.4332L18.4851 15.6265ZM14.7219 10.3718L13.804 4.47455L12.7715 10.3718H14.7219Z" fill="white"/>
<path d="M26.9084 15.6265H19.795V0.344197H22.6404V13.1024H26.9084V15.6265Z" fill="white"/>
<path d="M36.7162 12.0928C36.7162 14.3874 34.9723 15.9707 32.4941 15.9707C30.0159 15.9707 28.1801 14.3874 28.1801 12.0928V0.344197H31.0714V12.0928C31.0714 12.9877 31.5762 13.4925 32.4941 13.4925C33.4349 13.4925 33.9397 12.9877 33.9397 12.0928V0.344197H36.7162V12.0928Z" fill="white"/>
<path d="M46.1949 15.6265H38.8979V0.344197H46.1949V2.79946H41.7433V6.58562H44.8181V8.83436H41.7433V13.0794H46.1949V15.6265Z" fill="white"/>
<path d="M60.0794 11.978C60.0794 14.2727 58.6567 15.9707 55.949 15.9707C53.2184 15.9707 51.5433 14.135 51.5433 11.7715V4.19919C51.5433 1.83571 53.2184 0 55.949 0C58.6567 0 60.0794 1.69803 60.0794 3.99267V5.85133H57.5323V4.01562C57.5323 3.12071 57.0275 2.50116 55.9949 2.50116C54.9624 2.50116 54.4346 3.12071 54.4346 3.96973V12.001C54.4346 12.85 54.9624 13.4695 55.9949 13.4695C57.0275 13.4695 57.5323 12.85 57.5323 11.9551V10.1194H60.0794V11.978Z" fill="white"/>
<path d="M64.7506 15.6265H61.9052V0.344197H64.7506V15.6265Z" fill="white"/>
<path d="M74.7079 2.8683H71.9084V15.6265H69.0401V2.8683H66.2177V0.344197H74.7079V2.8683Z" fill="white"/>
<path d="M84.9531 0.344197L81.4882 9.38508V15.6265H78.6428V9.38508L75.2697 0.344197H78.2528L80.2261 6.56267L82.1078 0.344197H84.9531Z" fill="white"/>
<path d="M7.98535 20.7599H3.69437V24.7755H6.86097V27.162H3.69437V33.6558H0.849017V18.3735H7.98535V20.7599Z" fill="white"/>
<path d="M17.9943 30.1221C17.9943 32.4167 16.2503 34 13.7721 34C11.2939 34 9.45822 32.4167 9.45822 30.1221V18.3735H12.3495V30.1221C12.3495 31.017 12.8543 31.5218 13.7721 31.5218C14.7129 31.5218 15.2178 31.017 15.2178 30.1221V18.3735H17.9943V30.1221Z" fill="white"/>
<path d="M28.9644 33.7476H27.2435C26.1191 33.7476 25.6831 32.8297 25.6831 31.4988V28.6305C25.6831 27.9192 25.316 27.3226 24.5128 27.3226H23.0213V33.6558H20.176V18.3735H24.88C26.9681 18.3735 28.3678 19.5667 28.3678 21.7007V23.8577C28.3678 25.005 27.8401 25.854 26.6469 26.2212C27.8401 26.5424 28.4137 27.5521 28.4137 28.5388V31.3382C28.4137 32.0496 28.6202 32.5314 28.9644 32.8986V33.7476ZM25.5913 23.9954V21.8155C25.5913 21.1271 25.293 20.714 24.5817 20.714H23.0213V25.2115H24.4669C25.2012 25.2115 25.5913 24.8214 25.5913 23.9954Z" fill="white"/>
<path d="M39.3237 33.6558H37.1208L34.1607 27.139L33.0822 24.7067V33.6558H30.4664V18.3735H32.9216L35.744 25.005L36.7537 27.4373V18.3735H39.3237V33.6558Z" fill="white"/>
<path d="M44.3651 33.6558H41.5197V18.3735H44.3651V33.6558Z" fill="white"/>
<path d="M54.3224 20.8976H51.5229V33.6558H48.6546V20.8976H45.8322V18.3735H54.3224V20.8976Z" fill="white"/>
<path d="M64.2501 30.1221C64.2501 32.4167 62.5062 34 60.0279 34C57.5497 34 55.714 32.4167 55.714 30.1221V18.3735H58.6053V30.1221C58.6053 31.017 59.1101 31.5218 60.0279 31.5218C60.9687 31.5218 61.4736 31.017 61.4736 30.1221V18.3735H64.2501V30.1221Z" fill="white"/>
<path d="M75.2202 33.7476H73.4993C72.3749 33.7476 71.9389 32.8297 71.9389 31.4988V28.6305C71.9389 27.9192 71.5718 27.3226 70.7686 27.3226H69.2771V33.6558H66.4318V18.3735H71.1358C73.2239 18.3735 74.6236 19.5667 74.6236 21.7007V23.8577C74.6236 25.005 74.0959 25.854 72.9027 26.2212C74.0959 26.5424 74.6695 27.5521 74.6695 28.5388V31.3382C74.6695 32.0496 74.8761 32.5314 75.2202 32.8986V33.7476ZM71.8471 23.9954V21.8155C71.8471 21.1271 71.5488 20.714 70.8375 20.714H69.2771V25.2115H70.7228C71.457 25.2115 71.8471 24.8214 71.8471 23.9954Z" fill="white"/>
<path d="M84.0421 33.6558H76.7451V18.3735H84.0421V20.8288H79.5905V24.6149H82.6653V26.8637H79.5905V31.1088H84.0421V33.6558Z" fill="white"/>
</svg>
