<svg width="34" height="34" viewBox="0 0 34 34" fill="none" xmlns="http://www.w3.org/2000/svg">
<path fill-rule="evenodd" clip-rule="evenodd" d="M0 34H34V0H0V34Z" fill="#DB131A"/>
<path d="M13.3772 14.2829V20.2747C13.3772 22.7132 14.8403 24.1763 17.4181 24.3853V21.8771C16.7214 21.7378 16.2337 21.1107 16.3034 20.414V14.0739C16.2337 13.3771 16.7214 12.7501 17.4181 12.6107V10.1025C14.8403 10.3116 13.3772 11.8443 13.3772 14.2829ZM7.80338 16.8607L9.05748 22.6435L12.1927 10.4509H9.40584L7.80338 16.8607ZM19.4386 20.3443C19.5083 21.0411 19.0206 21.7378 18.3239 21.8075V24.3157C20.7624 24.1763 22.2952 22.8525 22.2952 20.414V19.0206H19.5083L19.4386 20.3443ZM2.5083 10.4509L5.57388 24.037H8.36076L5.43453 10.4509H2.5083ZM28.4263 10.4509V12.8198H31.9796V10.4509H28.4263ZM28.4263 18.3935H30.7952V16.0943H28.4263V18.3935ZM24.664 24.037H27.5206V10.4509H24.664V24.037ZM18.3239 10.1722V12.6804C19.0206 12.8198 19.5083 13.4468 19.4386 14.1435V15.3976H22.2255V14.0042C22.2952 11.6353 20.7624 10.3116 18.3239 10.1722Z" fill="white"/>
</svg>
