<svg width="97" height="23" viewBox="0 0 97 23" fill="none" xmlns="http://www.w3.org/2000/svg">
<g clip-path="url(#clip0_35_299)">
<path d="M78.395 2.86694H74.7909L68.6475 15.0649L62.5793 2.86694H59.0366C62.8591 10.512 68.709 22.2321 68.709 22.2321L78.395 2.86694Z" fill="#F89921"/>
<path d="M50.4564 5.75445C51.8804 5.75487 53.2633 6.23147 54.3852 7.10842C55.507 7.98538 56.3034 9.21232 56.6476 10.594H44.2653C44.6106 9.2129 45.4072 7.98664 46.5289 7.10987C47.6505 6.2331 49.0328 5.75606 50.4564 5.75445ZM50.4564 18.4985C49.0337 18.4973 47.6521 18.0212 46.5306 17.1457C45.4091 16.2703 44.6119 15.0456 44.2653 13.6657H59.9035V12.1299C59.9008 9.82756 59.0555 7.60585 57.5272 5.88391C55.999 4.16197 53.8934 3.05886 51.6077 2.78269C49.322 2.50652 47.0143 3.07638 45.1198 4.38477C43.2254 5.69316 41.8754 7.64961 41.3243 9.88501C40.7732 12.1204 41.0593 14.4802 42.1286 16.5192C43.1978 18.5581 44.9763 20.1353 47.1285 20.9531C49.2806 21.7709 51.6577 21.7728 53.8112 20.9585C55.9647 20.1441 57.7457 18.5698 58.8182 16.5326H55.0708C54.4745 17.1552 53.7582 17.6505 52.9651 17.9884C52.1719 18.3263 51.3185 18.4998 50.4564 18.4985Z" fill="#F89921"/>
<path d="M86.9139 18.5735C85.6577 18.5733 84.4295 18.202 83.3835 17.5062C82.3376 16.8103 81.5205 15.821 81.0349 14.6624C80.5494 13.5038 80.4169 12.2276 80.6542 10.9939C80.8914 9.76028 81.4879 8.62423 82.3686 7.72842C83.2493 6.8326 84.3751 6.21695 85.6045 5.95875C86.834 5.70056 88.1123 5.81134 89.2789 6.27717C90.4456 6.74301 91.4487 7.54315 92.1622 8.57711C92.8757 9.61108 93.2678 10.8328 93.2893 12.0889V12.3005C93.259 13.9724 92.5743 15.5658 91.3823 16.7386C90.1904 17.9114 88.5861 18.5702 86.9139 18.5735ZM96.361 12.1981V2.9148H93.2893V5.24244C91.9389 4.00001 90.2559 3.17775 88.4459 2.87609C86.6359 2.57443 84.7772 2.80644 83.0968 3.54378C81.4165 4.28112 79.9873 5.49187 78.9837 7.02813C77.9802 8.5644 77.4458 10.3597 77.4458 12.1947C77.4458 14.0297 77.9802 15.8249 78.9837 17.3612C79.9873 18.8975 81.4165 20.1082 83.0968 20.8455C84.7772 21.5829 86.6359 21.8149 88.4459 21.5132C90.2559 21.2116 91.9389 20.3893 93.2893 19.1469V21.495H96.361V12.1981Z" fill="#F89921"/>
<path d="M29.4667 5.75436C30.89 5.75715 32.2718 6.23464 33.3931 7.11122C34.5145 7.9878 35.3115 9.21339 35.6578 10.594H23.3233C23.6655 9.22014 24.4548 7.99909 25.5669 7.12297C26.6791 6.24685 28.0509 5.76539 29.4667 5.75436ZM29.4667 18.4984C28.0522 18.4866 26.6815 18.0057 25.5698 17.1311C24.458 16.2564 23.6679 15.0376 23.3233 13.6656H38.9411V12.1298C38.9427 9.8221 38.0996 7.59364 36.5709 5.86493C35.0422 4.13623 32.9336 3.02686 30.643 2.74618C28.3525 2.46551 26.0384 3.03294 24.1375 4.34139C22.2366 5.64984 20.8804 7.60882 20.3248 9.84862C19.7692 12.0884 20.0526 14.4541 21.1216 16.4993C22.1906 18.5444 23.9712 20.1276 26.1273 20.95C28.2835 21.7724 30.6661 21.7771 32.8255 20.9633C34.985 20.1495 36.7718 18.5734 37.8489 16.5325H34.1083C33.5084 17.1579 32.7875 17.6546 31.9896 17.9926C31.1916 18.3305 30.3332 18.5026 29.4667 18.4984Z" fill="#F89921"/>
<path d="M0.36084 0H4.15606L11.3779 14.5119L18.5451 0H22.2721L11.3369 22.198L0.36084 0Z" fill="#F89921"/>
<path d="M6.38135 0.0410156L11.3233 9.89085L16.2517 0.0410156H6.38135Z" fill="#898B8D"/>
</g>
<defs>
<clipPath id="clip0_35_299">
<rect width="96" height="22.2321" fill="white" transform="translate(0.36084)"/>
</clipPath>
</defs>
</svg>
