<svg width="34" height="34" viewBox="0 0 34 34" fill="none" xmlns="http://www.w3.org/2000/svg">
<g opacity="0.61">
<path d="M14.5362 31.3596L14.158 32.2331H13.9584L13.5815 31.3596H13.8L14.0657 31.9835L14.3353 31.3596H14.5362Z" fill="white"/>
<path d="M15.1985 31.9423H14.6906C14.7093 32.0259 14.7804 32.077 14.8828 32.077C14.9539 32.077 15.005 32.0558 15.0512 32.0122L15.1548 32.1244C15.0924 32.1956 14.9988 32.233 14.8777 32.233C14.6457 32.233 14.4946 32.087 14.4946 31.8874C14.4946 31.6865 14.6481 31.5417 14.8528 31.5417C15.0499 31.5417 15.2022 31.674 15.2022 31.8899C15.2022 31.9049 15.1998 31.9261 15.1985 31.9423ZM14.6882 31.8287H15.0188C15.0051 31.7438 14.9415 31.689 14.8541 31.689C14.7655 31.689 14.7019 31.7426 14.6882 31.8287Z" fill="white"/>
<path d="M15.2822 31.8874C15.2822 31.6852 15.4382 31.5417 15.6566 31.5417C15.7976 31.5417 15.9086 31.6029 15.9573 31.7127L15.8064 31.7938C15.7702 31.7302 15.7165 31.7015 15.6553 31.7015C15.5567 31.7015 15.4794 31.7701 15.4794 31.8874C15.4794 32.0047 15.5568 32.0733 15.6553 32.0733C15.7165 32.0733 15.7701 32.0458 15.8064 31.981L15.9573 32.0633C15.9086 32.1706 15.7976 32.233 15.6566 32.233C15.4382 32.233 15.2822 32.0896 15.2822 31.8874Z" fill="white"/>
<path d="M16.5124 32.1907C16.4725 32.2194 16.4138 32.2331 16.3539 32.2331C16.1954 32.2331 16.1031 32.152 16.1031 31.9923V31.7165H15.9995V31.5668H16.1031V31.4033H16.2978V31.5668H16.465V31.7165H16.2978V31.9898C16.2978 32.0472 16.3289 32.0784 16.3813 32.0784C16.41 32.0784 16.4387 32.0697 16.4599 32.0535L16.5124 32.1907Z" fill="white"/>
<path d="M17.8484 31.5518V31.7315C17.8322 31.7303 17.8197 31.729 17.8048 31.729C17.6975 31.729 17.6263 31.7876 17.6263 31.9162V32.2331H17.4316V31.5618H17.6176V31.6504C17.6649 31.5855 17.7448 31.5518 17.8484 31.5518Z" fill="white"/>
<path d="M17.9043 32.132L17.9729 31.9797C18.0466 32.0334 18.1563 32.0708 18.2612 32.0708C18.381 32.0708 18.4296 32.0309 18.4296 31.9772C18.4296 31.8137 17.9217 31.9261 17.9217 31.6016C17.9217 31.4531 18.0415 31.3296 18.2898 31.3296C18.3996 31.3296 18.5119 31.3558 18.593 31.407L18.5306 31.5604C18.4495 31.5143 18.3659 31.4918 18.2885 31.4918C18.1687 31.4918 18.1226 31.5367 18.1226 31.5917C18.1226 31.7526 18.6304 31.6416 18.6304 31.9623C18.6304 32.1083 18.5094 32.233 18.2598 32.233C18.1214 32.2331 17.9817 32.1919 17.9043 32.132Z" fill="white"/>
<path d="M19.4094 31.9423H18.9015C18.9202 32.0259 18.9914 32.077 19.0937 32.077C19.1648 32.077 19.216 32.0558 19.2621 32.0122L19.3657 32.1244C19.3033 32.1956 19.2097 32.233 19.0887 32.233C18.8566 32.233 18.7056 32.087 18.7056 31.8874C18.7056 31.6865 18.859 31.5417 19.0637 31.5417C19.2609 31.5417 19.4131 31.674 19.4131 31.8899C19.4132 31.9049 19.4107 31.9261 19.4094 31.9423ZM18.8991 31.8287H19.2298C19.216 31.7438 19.1524 31.689 19.0651 31.689C18.9765 31.689 18.9128 31.7426 18.8991 31.8287Z" fill="white"/>
<path d="M20.1965 31.9423H19.6887C19.7074 32.0259 19.7785 32.077 19.8808 32.077C19.9519 32.077 20.0031 32.0558 20.0493 32.0122L20.1528 32.1244C20.0904 32.1956 19.9968 32.233 19.8758 32.233C19.6437 32.233 19.4927 32.087 19.4927 31.8874C19.4927 31.6865 19.6462 31.5417 19.8508 31.5417C20.048 31.5417 20.2002 31.674 20.2002 31.8899C20.2003 31.9049 20.1978 31.9261 20.1965 31.9423ZM19.6861 31.8287H20.0168C20.0031 31.7438 19.9394 31.689 19.8521 31.689C19.7635 31.689 19.6999 31.7426 19.6861 31.8287Z" fill="white"/>
<path d="M20.6183 31.9697L20.5247 32.0621V32.233H20.3301V31.3071H20.5247V31.8312L20.8093 31.5617H21.0414L20.7618 31.8462L21.0663 32.233H20.8304L20.6183 31.9697Z" fill="white"/>
<path d="M17.4489 32.3244L17.2544 32.1299C17.2248 32.1644 17.1896 32.194 17.1501 32.2172C17.1438 32.2219 17.1375 32.2264 17.1309 32.2307L17.3367 32.4366C17.3677 32.4676 17.418 32.4676 17.4489 32.4366C17.4799 32.4056 17.4799 32.3554 17.4489 32.3244Z" fill="white"/>
<path d="M16.9993 31.5004C17.0144 31.4887 17.033 31.4813 17.0535 31.4813C17.0564 31.4813 17.0592 31.4815 17.062 31.4817C17.0474 31.4711 17.0294 31.4648 17.01 31.4648C16.9831 31.4648 16.9594 31.477 16.9433 31.4959C16.9398 31.4959 16.9365 31.4963 16.933 31.4965C16.9357 31.4912 16.9374 31.4855 16.9374 31.4791C16.9374 31.4632 16.9277 31.4496 16.9138 31.4438C16.9198 31.4524 16.9232 31.4628 16.9232 31.4741C16.9232 31.4824 16.9211 31.4902 16.9177 31.4973C16.7266 31.511 16.5757 31.6699 16.5757 31.8645C16.5757 32.068 16.7407 32.2331 16.9442 32.2331C17.1478 32.2331 17.3128 32.0681 17.3128 31.8645C17.3129 31.6796 17.1767 31.527 16.9993 31.5004ZM16.8633 31.5964C16.8928 31.5964 16.9206 31.6041 16.9448 31.6175C16.9702 31.6008 17.0005 31.5911 17.0331 31.5911C17.0815 31.5911 17.1248 31.6124 17.1544 31.6459C17.1249 31.6202 17.0862 31.6045 17.0438 31.6045C17.0133 31.6045 16.9846 31.6126 16.9599 31.6268C16.9545 31.63 16.9493 31.6334 16.9443 31.637C16.9399 31.6338 16.9353 31.6307 16.9304 31.6279C16.9053 31.613 16.876 31.6045 16.8448 31.6045C16.8244 31.6045 16.8048 31.6082 16.7867 31.6149C16.8097 31.6031 16.8357 31.5964 16.8633 31.5964ZM17.1209 31.8985C17.1287 31.9192 17.1332 31.9416 17.1332 31.9651C17.1332 32.0694 17.0486 32.1539 16.9443 32.1539C16.84 32.1539 16.7555 32.0694 16.7555 31.9651C16.7555 31.9416 16.76 31.9192 16.7678 31.8985C16.7256 31.8725 16.6974 31.8261 16.6974 31.773C16.6974 31.6916 16.7634 31.6255 16.8448 31.6255C16.8832 31.6255 16.9181 31.6404 16.9443 31.6644C16.9706 31.6404 17.0054 31.6255 17.0439 31.6255C17.1253 31.6255 17.1913 31.6916 17.1913 31.773C17.1913 31.8261 17.1631 31.8725 17.1209 31.8985Z" fill="white"/>
<path d="M17.1133 31.76C17.1133 31.7938 17.0858 31.8213 17.052 31.8213C17.0182 31.8213 16.9907 31.7938 16.9907 31.76C16.9907 31.7262 17.0182 31.6987 17.052 31.6987C17.0589 31.6987 17.0654 31.6999 17.0715 31.7019C17.0695 31.7061 17.0684 31.7109 17.0684 31.7158C17.0684 31.7344 17.0835 31.7494 17.102 31.7494C17.1054 31.7494 17.1088 31.7488 17.112 31.7479C17.1129 31.7518 17.1133 31.7559 17.1133 31.76Z" fill="white"/>
<path d="M16.8817 31.7599C16.8817 31.7855 16.8609 31.8062 16.8354 31.8062C16.8098 31.8062 16.7891 31.7855 16.7891 31.7599C16.7891 31.7344 16.8098 31.7136 16.8354 31.7136C16.8405 31.7136 16.8455 31.7145 16.8501 31.716C16.8486 31.7192 16.8478 31.7228 16.8478 31.7265C16.8478 31.7406 16.8592 31.752 16.8732 31.752C16.8758 31.752 16.8783 31.7516 16.8807 31.7508C16.8813 31.7537 16.8817 31.7568 16.8817 31.7599Z" fill="white"/>
<path d="M16.56 31.8123H16.5181V31.8541H16.56V31.8123Z" fill="white"/>
<path d="M17.3705 31.8123H17.3286V31.8541H17.3705V31.8123Z" fill="white"/>
<path d="M17.3543 31.8295H17.3447C17.3447 31.6086 17.1651 31.429 16.9442 31.429C16.7234 31.429 16.5437 31.6086 16.5437 31.8295H16.5342C16.5342 31.7199 16.5768 31.617 16.6543 31.5395C16.7317 31.4621 16.8347 31.4194 16.9442 31.4194C17.0538 31.4194 17.1567 31.4621 17.2342 31.5395C17.3116 31.617 17.3543 31.7199 17.3543 31.8295Z" fill="white"/>
<path d="M16.9652 31.4033H16.9233V31.4452H16.9652V31.4033Z" fill="white"/>
<path d="M17.2313 31.4194H16.6567V31.429H17.2313V31.4194Z" fill="white"/>
<path d="M16.6722 31.4262C16.6722 31.4335 16.6662 31.4395 16.6588 31.4395C16.6515 31.4395 16.6455 31.4335 16.6455 31.4262C16.6455 31.4188 16.6515 31.4128 16.6588 31.4128C16.6662 31.4128 16.6722 31.4188 16.6722 31.4262Z" fill="white"/>
<path d="M17.2449 31.4262C17.2449 31.4335 17.2389 31.4395 17.2316 31.4395C17.2242 31.4395 17.2183 31.4335 17.2183 31.4262C17.2183 31.4188 17.2242 31.4128 17.2316 31.4128C17.239 31.4128 17.2449 31.4188 17.2449 31.4262Z" fill="white"/>
<path d="M21.3766 32.1918C21.3766 32.2978 21.2158 32.2978 21.2158 32.1918C21.2159 32.0858 21.3766 32.0858 21.3766 32.1918Z" fill="white"/>
<path d="M10.9986 31.7253L11.1191 32.1393L11.2452 31.7253H11.3959L11.2039 32.2789H11.0454L10.9885 32.1159L10.9394 31.9318L10.8903 32.1159L10.8334 32.2789H10.675L10.4819 31.7253H10.6336L10.7598 32.1393L10.8792 31.7253H10.9986Z" fill="white"/>
<path d="M12.0167 31.7253L12.1372 32.1393L12.2633 31.7253H12.4139L12.222 32.2789H12.0635L12.0066 32.1159L11.9575 31.9318L11.9084 32.1159L11.8515 32.2789H11.6931L11.5 31.7253H11.6517L11.7778 32.1393L11.8973 31.7253H12.0167Z" fill="white"/>
<path d="M13.0352 31.7253L13.1557 32.1393L13.2819 31.7253H13.4325L13.2405 32.2789H13.0821L13.0252 32.1159L12.9761 31.9318L12.927 32.1159L12.87 32.2789H12.7116L12.5186 31.7253H12.6703L12.7964 32.1393L12.9158 31.7253H13.0352Z" fill="white"/>
<path d="M13.6622 32.1993C13.6622 32.3053 13.5015 32.3053 13.5015 32.1993C13.5015 32.0934 13.6622 32.0934 13.6622 32.1993Z" fill="white"/>
<path d="M21.9448 32.1917C21.8812 32.2542 21.8143 32.2788 21.7328 32.2788C21.5733 32.2788 21.4404 32.1828 21.4404 31.9876C21.4404 31.7924 21.5732 31.6963 21.7328 31.6963C21.811 31.6963 21.8712 31.7187 21.9315 31.7778L21.8455 31.8682C21.8131 31.8391 21.773 31.8247 21.7351 31.8247C21.6436 31.8247 21.5767 31.8917 21.5767 31.9876C21.5767 32.0925 21.6481 32.1482 21.7329 32.1482C21.7764 32.1482 21.8199 32.136 21.8534 32.1025L21.9448 32.1917Z" fill="white"/>
<path d="M22.5631 31.9921C22.5631 32.1505 22.455 32.2788 22.2764 32.2788C22.0978 32.2788 21.9907 32.1505 21.9907 31.9921C21.9907 31.8347 22.1001 31.7053 22.2753 31.7053C22.4505 31.7053 22.5631 31.8347 22.5631 31.9921ZM22.1269 31.9921C22.1269 32.0758 22.1771 32.1539 22.2764 32.1539C22.3757 32.1539 22.4259 32.0758 22.4259 31.9921C22.4259 31.9095 22.3679 31.8291 22.2764 31.8291C22.1782 31.8292 22.1269 31.9095 22.1269 31.9921Z" fill="white"/>
<path d="M23.0233 32.2787V31.9841C23.0233 31.9115 22.9853 31.8457 22.9105 31.8457C22.837 31.8457 22.7934 31.9115 22.7934 31.9841V32.2787H22.6572V31.7274H22.7834L22.7934 31.7944C22.8224 31.7386 22.886 31.7185 22.9385 31.7185C23.0044 31.7185 23.0702 31.7453 23.1014 31.8212C23.1506 31.7431 23.2141 31.7207 23.2855 31.7207C23.4417 31.7207 23.5188 31.8167 23.5188 31.9818V32.2786H23.3826V31.9818C23.3826 31.9093 23.3525 31.8478 23.2788 31.8478C23.2052 31.8478 23.1594 31.9114 23.1594 31.984V32.2786H23.0233V32.2787Z" fill="white"/>
</g>
<g opacity="0.61">
<path d="M23.5276 29.3283C23.5272 29.245 23.4624 29.184 23.3787 29.1827C23.3159 29.1818 23.3221 29.1909 23.322 29.1238C23.3218 29.0492 23.3215 28.9746 23.3222 28.8999C23.3224 28.8741 23.3146 28.8529 23.2976 28.8336C23.1383 28.6521 22.9795 28.4703 22.8203 28.2888C22.8121 28.2795 22.8016 28.2722 22.7921 28.2639C22.3696 28.2639 21.9471 28.2639 21.5246 28.2639C21.4706 28.2838 21.447 28.3229 21.4472 28.3801C21.4479 28.635 21.4474 28.8899 21.4474 29.1447C21.4474 29.1825 21.4472 29.1847 21.41 29.1821C21.3083 29.1752 21.239 29.2492 21.2403 29.3516C21.2432 29.5879 21.2411 29.8244 21.2412 30.0607C21.2413 30.1682 21.3002 30.2269 21.4078 30.2273C21.4474 30.2274 21.4474 30.2274 21.4474 30.2681C21.4474 30.419 21.4473 30.5699 21.4474 30.7208C21.4475 30.8018 21.4869 30.8412 21.5677 30.8412C22.1126 30.8413 22.6575 30.8413 23.2024 30.8412C23.2818 30.8412 23.3217 30.8015 23.3219 30.7225C23.322 30.5691 23.3219 30.4157 23.3219 30.2623C23.3219 30.2275 23.3221 30.2276 23.3573 30.2273C23.3757 30.2271 23.3941 30.2278 23.4123 30.2233C23.48 30.2066 23.5272 30.1523 23.5275 30.0826C23.5286 29.8312 23.5287 29.5797 23.5276 29.3283ZM21.5929 28.3669C21.9558 28.3669 22.3187 28.3669 22.6816 28.3669C22.7188 28.3669 22.7193 28.3674 22.7193 28.4051C22.7193 28.5576 22.7192 28.7101 22.7193 28.8627C22.7194 28.9179 22.7363 28.9347 22.7914 28.9347C22.9213 28.9348 23.0512 28.9347 23.1811 28.9348C23.2123 28.9348 23.2137 28.9362 23.2138 28.9676C23.214 29.028 23.214 29.0883 23.2138 29.1487C23.2137 29.1811 23.2122 29.1825 23.1795 29.1826C22.9147 29.1827 22.6498 29.1826 22.385 29.1826C22.1211 29.1826 21.857 29.1826 21.593 29.1826C21.5556 29.1826 21.5555 29.1825 21.5555 29.1444C21.5554 28.898 21.5554 28.6517 21.5555 28.4052C21.5555 28.3672 21.5558 28.3669 21.5929 28.3669ZM23.1763 30.7073C22.9122 30.7074 22.6482 30.7073 22.3841 30.7073C22.1209 30.7073 21.8576 30.7073 21.5944 30.7073C21.5555 30.7073 21.5554 30.7072 21.5554 30.6679C21.5553 30.5321 21.5553 30.3963 21.5554 30.2605C21.5554 30.229 21.557 30.2275 21.5879 30.2274C22.1185 30.2273 22.6492 30.2273 23.1798 30.2274C23.2123 30.2274 23.2137 30.2288 23.2137 30.2616C23.2139 30.3974 23.2138 30.5332 23.2137 30.669C23.2139 30.707 23.2135 30.7073 23.1763 30.7073Z" fill="white"/>
<path d="M22.3846 28.3596H22.2651V28.4313H22.3846V28.3596Z" fill="white"/>
<path d="M22.265 28.4314H22.1455V28.5031H22.265V28.4314Z" fill="white"/>
<path d="M22.3846 28.5029H22.2651V28.5746H22.3846V28.5029Z" fill="white"/>
<path d="M22.265 28.5747H22.1455V28.6464H22.265V28.5747Z" fill="white"/>
<path d="M22.3846 28.6462H22.2651V28.7179H22.3846V28.6462Z" fill="white"/>
<path d="M22.265 28.718H22.1455V28.7897H22.265V28.718Z" fill="white"/>
<path d="M22.3846 28.7898H22.2651V28.8615H22.3846V28.7898Z" fill="white"/>
<path d="M22.265 28.8613H22.1455V28.933H22.265V28.8613Z" fill="white"/>
<path d="M22.3846 28.9331H22.2651V29.0048H22.3846V28.9331Z" fill="white"/>
<path d="M22.265 29.0046H22.1455V29.0763H22.265V29.0046Z" fill="white"/>
<path d="M22.3846 29.0764H22.2651V29.1481H22.3846V29.0764Z" fill="white"/>
<path d="M22.265 29.1482H22.1455V29.2199H22.265V29.1482Z" fill="white"/>
<path d="M12.7595 29.3283C12.7591 29.245 12.6943 29.184 12.6106 29.1827C12.5478 29.1818 12.5541 29.1909 12.5539 29.1238C12.5537 29.0492 12.5535 28.9746 12.5541 28.8999C12.5543 28.8741 12.5465 28.8529 12.5295 28.8336C12.3703 28.6521 12.2114 28.4703 12.0522 28.2888C12.0441 28.2795 12.0335 28.2722 12.0241 28.2639C11.6015 28.2639 11.179 28.2639 10.7565 28.2639C10.7025 28.2838 10.679 28.3229 10.6791 28.3801C10.6798 28.635 10.6794 28.8899 10.6794 29.1447C10.6794 29.1825 10.6792 29.1847 10.642 29.1821C10.5402 29.1752 10.4709 29.2492 10.4722 29.3516C10.4752 29.5879 10.4731 29.8244 10.4731 30.0607C10.4732 30.1682 10.5321 30.2269 10.6397 30.2273C10.6793 30.2274 10.6793 30.2274 10.6793 30.2681C10.6793 30.419 10.6792 30.5699 10.6794 30.7208C10.6794 30.8018 10.7188 30.8412 10.7996 30.8412C11.3445 30.8413 11.8894 30.8413 12.4343 30.8412C12.5137 30.8412 12.5537 30.8015 12.5538 30.7225C12.5539 30.5691 12.5538 30.4157 12.5539 30.2623C12.5539 30.2275 12.554 30.2276 12.5892 30.2273C12.6077 30.2271 12.626 30.2278 12.6442 30.2233C12.712 30.2066 12.7592 30.1523 12.7594 30.0826C12.7605 29.8312 12.7607 29.5797 12.7595 29.3283ZM10.8249 28.3669C11.1878 28.3669 11.5507 28.3669 11.9136 28.3669C11.9508 28.3669 11.9513 28.3674 11.9513 28.4051C11.9513 28.5576 11.9512 28.7101 11.9513 28.8627C11.9514 28.9179 11.9683 28.9347 12.0234 28.9347C12.1533 28.9348 12.2832 28.9347 12.4131 28.9348C12.4443 28.9348 12.4457 28.9362 12.4458 28.9676C12.446 29.028 12.446 29.0883 12.4458 29.1487C12.4457 29.1811 12.4442 29.1825 12.4115 29.1826C12.1467 29.1827 11.8818 29.1826 11.617 29.1826C11.3531 29.1826 11.089 29.1826 10.825 29.1826C10.7876 29.1826 10.7875 29.1825 10.7875 29.1444C10.7874 28.898 10.7874 28.6517 10.7875 28.4052C10.7874 28.3672 10.7877 28.3669 10.8249 28.3669ZM12.4083 30.7073C12.1442 30.7074 11.8802 30.7073 11.6161 30.7073C11.3529 30.7073 11.0896 30.7073 10.8264 30.7073C10.7875 30.7073 10.7874 30.7072 10.7874 30.6679C10.7873 30.5321 10.7873 30.3963 10.7874 30.2605C10.7874 30.229 10.789 30.2275 10.8199 30.2274C11.3505 30.2273 11.8812 30.2273 12.4118 30.2274C12.4443 30.2274 12.4457 30.2288 12.4457 30.2616C12.4459 30.3974 12.4458 30.5332 12.4457 30.669C12.4458 30.707 12.4455 30.7073 12.4083 30.7073Z" fill="white"/>
<path d="M10.8652 29.9652V29.4282H11.0542C11.0797 29.4282 11.1036 29.4324 11.1258 29.4406C11.148 29.4488 11.1674 29.4605 11.184 29.4755C11.2004 29.4905 11.2135 29.5083 11.2229 29.5291C11.2324 29.5499 11.2372 29.5728 11.2372 29.5977C11.2372 29.6232 11.2324 29.6464 11.2229 29.6671C11.2134 29.6878 11.2004 29.7057 11.184 29.7208C11.1674 29.7358 11.148 29.7474 11.1258 29.7556C11.1036 29.7639 11.0797 29.768 11.0542 29.768H10.9665V29.9653H10.8652V29.9652ZM11.0557 29.6719C11.0822 29.6719 11.1022 29.6644 11.1157 29.6494C11.1292 29.6345 11.1359 29.6172 11.1359 29.5977C11.1359 29.5882 11.1343 29.5789 11.131 29.5699C11.1278 29.561 11.1228 29.5531 11.116 29.5463C11.1093 29.5396 11.1009 29.5342 11.0909 29.5302C11.0809 29.5262 11.0691 29.5242 11.0556 29.5242H10.9664V29.6719H11.0557Z" fill="white"/>
<path d="M11.3091 29.4282H11.4268L11.6428 29.7882H11.6488L11.6428 29.6847V29.4282H11.7433V29.9652H11.6368L11.4088 29.585H11.4029L11.4088 29.6885V29.9652H11.3091V29.4282Z" fill="white"/>
<path d="M12.0991 29.6705H12.3624C12.3639 29.6766 12.3651 29.6838 12.3662 29.6923C12.3671 29.7008 12.3677 29.7093 12.3677 29.7178C12.3677 29.7522 12.3624 29.7848 12.3519 29.8153C12.3415 29.8458 12.3249 29.873 12.3024 29.897C12.2784 29.9225 12.2497 29.9423 12.2162 29.9562C12.1827 29.9703 12.1445 29.9773 12.1014 29.9773C12.0624 29.9773 12.0257 29.9703 11.9911 29.9562C11.9567 29.9422 11.9267 29.9228 11.9012 29.8978C11.8757 29.8728 11.8554 29.8432 11.8404 29.8089C11.8254 29.7746 11.8179 29.7373 11.8179 29.6968C11.8179 29.6563 11.8254 29.6189 11.8404 29.5846C11.8554 29.5504 11.8756 29.5208 11.9012 29.4958C11.9267 29.4708 11.9567 29.4513 11.9911 29.4373C12.0256 29.4233 12.0624 29.4163 12.1014 29.4163C12.145 29.4163 12.1838 29.4237 12.2181 29.4388C12.2523 29.4538 12.2816 29.4745 12.3062 29.501L12.2365 29.5693C12.2189 29.5508 12.1995 29.5366 12.1779 29.5269C12.1564 29.5172 12.1307 29.5123 12.1007 29.5123C12.0761 29.5123 12.0529 29.5167 12.0309 29.5254C12.0089 29.5342 11.9896 29.5465 11.9731 29.5625C11.9567 29.5785 11.9435 29.5979 11.9337 29.6207C11.924 29.6434 11.9191 29.6688 11.9191 29.6968C11.9191 29.7248 11.924 29.7501 11.9337 29.7729C11.9435 29.7957 11.9567 29.8151 11.9735 29.8311C11.9902 29.847 12.0096 29.8595 12.0316 29.8682C12.0536 29.877 12.0771 29.8813 12.1021 29.8813C12.1306 29.8813 12.1547 29.8772 12.1745 29.8689C12.1942 29.8607 12.211 29.85 12.2251 29.837C12.2351 29.8281 12.2438 29.8166 12.251 29.8029C12.2582 29.7892 12.2638 29.7738 12.2678 29.7568H12.0991L12.0991 29.6705Z" fill="white"/>
<path d="M15.2336 29.3283C15.2332 29.245 15.1684 29.184 15.0848 29.1827C15.0219 29.1818 15.0282 29.1909 15.0281 29.1238C15.0279 29.0492 15.0276 28.9746 15.0283 28.8999C15.0285 28.8741 15.0206 28.8529 15.0036 28.8336C14.8444 28.6521 14.6855 28.4703 14.5264 28.2888C14.5182 28.2795 14.5077 28.2722 14.4982 28.2639C14.0757 28.2639 13.6532 28.2639 13.2306 28.2639C13.1766 28.2838 13.1531 28.3229 13.1532 28.3801C13.1539 28.635 13.1535 28.8899 13.1535 29.1447C13.1535 29.1825 13.1533 29.1847 13.1161 29.1821C13.0143 29.1752 12.945 29.2492 12.9463 29.3516C12.9493 29.5879 12.9472 29.8244 12.9473 30.0607C12.9473 30.1682 13.0062 30.2269 13.1139 30.2273C13.1534 30.2274 13.1534 30.2274 13.1534 30.2681C13.1534 30.419 13.1534 30.5699 13.1535 30.7208C13.1536 30.8018 13.1929 30.8412 13.2737 30.8412C13.8186 30.8413 14.3636 30.8413 14.9084 30.8412C14.9879 30.8412 15.0278 30.8015 15.0279 30.7225C15.0281 30.5691 15.0279 30.4157 15.028 30.2623C15.028 30.2275 15.0281 30.2276 15.0634 30.2273C15.0818 30.2271 15.1001 30.2278 15.1184 30.2233C15.1862 30.2066 15.2333 30.1523 15.2336 30.0826C15.2346 29.8312 15.2348 29.5797 15.2336 29.3283ZM13.299 28.3669C13.6619 28.3669 14.0248 28.3669 14.3876 28.3669C14.4249 28.3669 14.4253 28.3674 14.4253 28.4051C14.4254 28.5576 14.4252 28.7101 14.4254 28.8627C14.4254 28.9179 14.4423 28.9347 14.4975 28.9347C14.6273 28.9348 14.7573 28.9347 14.8872 28.9348C14.9183 28.9348 14.9197 28.9362 14.9199 28.9676C14.9201 29.028 14.92 29.0883 14.9199 29.1487C14.9198 29.1811 14.9182 29.1825 14.8856 29.1826C14.6207 29.1827 14.3559 29.1826 14.0911 29.1826C13.8271 29.1826 13.5631 29.1826 13.2991 29.1826C13.2617 29.1826 13.2616 29.1825 13.2616 29.1444C13.2615 28.898 13.2615 28.6517 13.2616 28.4052C13.2616 28.3672 13.2618 28.3669 13.299 28.3669ZM14.8824 30.7073C14.6184 30.7074 14.3543 30.7073 14.0902 30.7073C13.827 30.7073 13.5637 30.7073 13.3005 30.7073C13.2616 30.7073 13.2615 30.7072 13.2615 30.6679C13.2614 30.5321 13.2614 30.3963 13.2616 30.2605C13.2616 30.229 13.2631 30.2275 13.2941 30.2274C13.8247 30.2273 14.3553 30.2273 14.8859 30.2274C14.9184 30.2274 14.9199 30.2288 14.9199 30.2616C14.92 30.3974 14.9199 30.5332 14.9199 30.669C14.9199 30.707 14.9196 30.7073 14.8824 30.7073Z" fill="white"/>
<path d="M13.9478 29.4285H14.0634L14.2651 29.9655H14.1533L14.1091 29.8372H13.9021L13.8578 29.9655H13.7461L13.9478 29.4285ZM14.0761 29.7443L14.0281 29.61L14.0086 29.5447H14.0026L13.9831 29.61L13.9351 29.7443H14.0761Z" fill="white"/>
<path d="M14.3707 29.5484C14.3622 29.5484 14.354 29.5467 14.3462 29.5435C14.3385 29.5402 14.3318 29.5357 14.326 29.5299C14.3203 29.5242 14.3157 29.5176 14.3125 29.5101C14.3092 29.5026 14.3076 29.4943 14.3076 29.4853C14.3076 29.4764 14.3092 29.4681 14.3125 29.4606C14.3158 29.4531 14.3203 29.4464 14.326 29.4407C14.3317 29.435 14.3385 29.4305 14.3462 29.4273C14.354 29.424 14.3621 29.4224 14.3707 29.4224C14.3881 29.4224 14.4032 29.4285 14.4157 29.4407C14.4282 29.453 14.4344 29.4679 14.4344 29.4853C14.4344 29.5028 14.4282 29.5177 14.4157 29.5299C14.4032 29.5422 14.3882 29.5484 14.3707 29.5484ZM14.322 29.9654V29.5979H14.4202V29.9654H14.322Z" fill="white"/>
<path d="M17.7512 29.3283C17.7508 29.245 17.686 29.184 17.6023 29.1827C17.5395 29.1818 17.5458 29.1909 17.5456 29.1238C17.5454 29.0492 17.5452 28.9746 17.5458 28.8999C17.546 28.8741 17.5382 28.8529 17.5212 28.8336C17.362 28.6521 17.2031 28.4703 17.0439 28.2888C17.0358 28.2795 17.0252 28.2722 17.0158 28.2639C16.5932 28.2639 16.1707 28.2639 15.7482 28.2639C15.6942 28.2838 15.6707 28.3229 15.6708 28.3801C15.6715 28.635 15.6711 28.8899 15.6711 29.1447C15.6711 29.1825 15.6709 29.1847 15.6337 29.1821C15.5319 29.1752 15.4626 29.2492 15.4639 29.3516C15.4669 29.5879 15.4648 29.8244 15.4648 30.0607C15.4649 30.1682 15.5238 30.2269 15.6314 30.2273C15.671 30.2274 15.671 30.2274 15.671 30.2681C15.671 30.419 15.6709 30.5699 15.6711 30.7208C15.6711 30.8018 15.7105 30.8412 15.7913 30.8412C16.3362 30.8413 16.8811 30.8413 17.426 30.8412C17.5054 30.8412 17.5454 30.8015 17.5455 30.7225C17.5456 30.5691 17.5455 30.4157 17.5456 30.2623C17.5456 30.2275 17.5457 30.2276 17.5809 30.2273C17.5994 30.2271 17.6177 30.2278 17.6359 30.2233C17.7037 30.2066 17.7509 30.1523 17.7511 30.0826C17.7522 29.8312 17.7524 29.5797 17.7512 29.3283ZM15.8165 28.3669C16.1794 28.3669 16.5424 28.3669 16.9052 28.3669C16.9425 28.3669 16.9429 28.3674 16.9429 28.4051C16.943 28.5576 16.9428 28.7101 16.943 28.8627C16.943 28.9179 16.9599 28.9347 17.015 28.9347C17.1449 28.9348 17.2749 28.9347 17.4047 28.9348C17.4359 28.9348 17.4373 28.9362 17.4374 28.9676C17.4377 29.028 17.4376 29.0883 17.4374 29.1487C17.4374 29.1811 17.4358 29.1825 17.4032 29.1826C17.1383 29.1827 16.8735 29.1826 16.6087 29.1826C16.3447 29.1826 16.0806 29.1826 15.8167 29.1826C15.7793 29.1826 15.7791 29.1825 15.7791 29.1444C15.7791 28.898 15.7791 28.6517 15.7791 28.4052C15.7791 28.3672 15.7794 28.3669 15.8165 28.3669ZM17.3999 30.7073C17.1359 30.7074 16.8718 30.7073 16.6077 30.7073C16.3445 30.7073 16.0813 30.7073 15.818 30.7073C15.7791 30.7073 15.779 30.7072 15.779 30.6679C15.7789 30.5321 15.7789 30.3963 15.7791 30.2605C15.7791 30.229 15.7806 30.2275 15.8116 30.2274C16.3422 30.2273 16.8728 30.2273 17.4034 30.2274C17.436 30.2274 17.4374 30.2288 17.4374 30.2616C17.4375 30.3974 17.4374 30.5332 17.4374 30.669C17.4375 30.707 17.4372 30.7073 17.3999 30.7073Z" fill="white"/>
<path d="M16.0728 29.9773C16.0498 29.9773 16.0278 29.974 16.0068 29.9676C15.9858 29.9611 15.9665 29.9513 15.9491 29.9383C15.9316 29.9253 15.9164 29.9094 15.9033 29.8907C15.8903 29.872 15.88 29.8501 15.8726 29.8251L15.9678 29.7876C15.9748 29.8146 15.9871 29.837 16.0045 29.8548C16.022 29.8725 16.0451 29.8814 16.0736 29.8814C16.084 29.8814 16.0942 29.8801 16.104 29.8773C16.1137 29.8746 16.1225 29.8705 16.1302 29.8653C16.138 29.8601 16.1441 29.8534 16.1486 29.8454C16.1531 29.8374 16.1553 29.8282 16.1553 29.8177C16.1553 29.8077 16.1535 29.7987 16.1501 29.7907C16.1466 29.7828 16.1407 29.7753 16.1325 29.7682C16.1242 29.7612 16.1134 29.7545 16.1002 29.7479C16.0869 29.7415 16.0706 29.7347 16.0511 29.7277L16.0181 29.7157C16.0036 29.7107 15.9889 29.7039 15.9742 29.6954C15.9595 29.6869 15.9461 29.6767 15.9341 29.6647C15.9221 29.6527 15.9122 29.6386 15.9045 29.6223C15.8967 29.6061 15.8928 29.5877 15.8928 29.5673C15.8928 29.5462 15.8969 29.5267 15.9052 29.5084C15.9134 29.4901 15.9252 29.4742 15.9404 29.4604C15.9557 29.4466 15.9739 29.4359 15.9952 29.4281C16.0164 29.4204 16.04 29.4165 16.066 29.4165C16.093 29.4165 16.1163 29.4201 16.1361 29.4274C16.1559 29.4347 16.1726 29.4439 16.1864 29.4551C16.2001 29.4663 16.2113 29.4788 16.2198 29.4923C16.2283 29.5058 16.2345 29.5185 16.2385 29.5305L16.1493 29.568C16.1443 29.553 16.1352 29.5395 16.122 29.5275C16.1087 29.5155 16.0906 29.5095 16.0676 29.5095C16.0456 29.5095 16.0273 29.5146 16.0128 29.5248C15.9984 29.5351 15.9911 29.5485 15.9911 29.5649C15.9911 29.5809 15.9981 29.5946 16.0121 29.6058C16.0261 29.617 16.0483 29.6279 16.0789 29.6385L16.1127 29.6497C16.1342 29.6572 16.1538 29.6658 16.1716 29.6756C16.1893 29.6853 16.2045 29.6969 16.2173 29.7105C16.23 29.724 16.2398 29.7394 16.2466 29.7566C16.2534 29.7738 16.2567 29.7937 16.2567 29.8162C16.2567 29.8442 16.251 29.8684 16.2398 29.8886C16.2286 29.9088 16.2142 29.9254 16.1967 29.9385C16.1792 29.9515 16.1595 29.9613 16.1374 29.9677C16.1153 29.974 16.0938 29.9773 16.0728 29.9773Z" fill="white"/>
<path d="M16.2876 29.4282H16.3971L16.5081 29.7515L16.5276 29.8205H16.5336L16.5546 29.7515L16.6702 29.4282H16.7796L16.5839 29.9652H16.4774L16.2876 29.4282Z" fill="white"/>
<path d="M17.0748 29.6705H17.338C17.3395 29.6766 17.3407 29.6838 17.3417 29.6923C17.3428 29.7008 17.3433 29.7093 17.3433 29.7178C17.3433 29.7522 17.338 29.7848 17.3275 29.8153C17.3171 29.8458 17.3005 29.873 17.278 29.897C17.254 29.9225 17.2253 29.9423 17.1918 29.9562C17.1583 29.9703 17.1201 29.9773 17.077 29.9773C17.038 29.9773 17.0013 29.9703 16.9668 29.9562C16.9323 29.9422 16.9023 29.9228 16.8768 29.8978C16.8513 29.8728 16.831 29.8432 16.816 29.8089C16.801 29.7746 16.7935 29.7373 16.7935 29.6968C16.7935 29.6563 16.8009 29.6189 16.816 29.5846C16.831 29.5504 16.8512 29.5208 16.8768 29.4958C16.9023 29.4708 16.9322 29.4513 16.9668 29.4373C17.0013 29.4233 17.038 29.4163 17.077 29.4163C17.1205 29.4163 17.1594 29.4237 17.1936 29.4388C17.2279 29.4538 17.2573 29.4745 17.2818 29.501L17.212 29.5693C17.1945 29.5508 17.175 29.5366 17.1534 29.5269C17.132 29.5172 17.1063 29.5123 17.0762 29.5123C17.0517 29.5123 17.0285 29.5167 17.0064 29.5254C16.9845 29.5342 16.9652 29.5465 16.9487 29.5625C16.9322 29.5785 16.9191 29.5979 16.9093 29.6207C16.8996 29.6434 16.8947 29.6688 16.8947 29.6968C16.8947 29.7248 16.8996 29.7501 16.9093 29.7729C16.9191 29.7957 16.9323 29.8151 16.9491 29.8311C16.9658 29.847 16.9852 29.8595 17.0072 29.8682C17.0292 29.877 17.0527 29.8813 17.0777 29.8813C17.1062 29.8813 17.1303 29.8772 17.15 29.8689C17.1698 29.8607 17.1867 29.85 17.2007 29.837C17.2107 29.8281 17.2193 29.8166 17.2265 29.8029C17.2338 29.7892 17.2394 29.7738 17.2434 29.7568H17.0746V29.6705H17.0748Z" fill="white"/>
<path d="M20.2165 29.3283C20.2161 29.245 20.1513 29.184 20.0677 29.1827C20.0048 29.1818 20.0111 29.1909 20.011 29.1238C20.0108 29.0492 20.0105 28.9746 20.0112 28.8999C20.0114 28.8741 20.0036 28.8529 19.9866 28.8336C19.8273 28.6521 19.6685 28.4703 19.5093 28.2888C19.5011 28.2795 19.4906 28.2722 19.4811 28.2639C19.0586 28.2639 18.6361 28.2639 18.2135 28.2639C18.1595 28.2838 18.136 28.3229 18.1361 28.3801C18.1368 28.635 18.1364 28.8899 18.1364 29.1447C18.1364 29.1825 18.1362 29.1847 18.099 29.1821C17.9972 29.1752 17.9279 29.2492 17.9292 29.3516C17.9322 29.5879 17.9301 29.8244 17.9302 30.0607C17.9302 30.1682 17.9891 30.2269 18.0968 30.2273C18.1363 30.2274 18.1363 30.2274 18.1363 30.2681C18.1363 30.419 18.1363 30.5699 18.1364 30.7208C18.1365 30.8018 18.1759 30.8412 18.2566 30.8412C18.8015 30.8413 19.3465 30.8413 19.8914 30.8412C19.9708 30.8412 20.0107 30.8015 20.0108 30.7225C20.011 30.5691 20.0108 30.4157 20.0109 30.2623C20.0109 30.2275 20.011 30.2276 20.0463 30.2273C20.0647 30.2271 20.083 30.2278 20.1013 30.2233C20.169 30.2066 20.2162 30.1523 20.2165 30.0826C20.2176 29.8312 20.2178 29.5797 20.2165 29.3283ZM18.2819 28.3669C18.6448 28.3669 19.0078 28.3669 19.3706 28.3669C19.4079 28.3669 19.4083 28.3674 19.4083 28.4051C19.4084 28.5576 19.4082 28.7101 19.4084 28.8627C19.4084 28.9179 19.4253 28.9347 19.4804 28.9347C19.6103 28.9348 19.7403 28.9347 19.8701 28.9348C19.9013 28.9348 19.9027 28.9362 19.9029 28.9676C19.9031 29.028 19.903 29.0883 19.9029 29.1487C19.9028 29.1811 19.9012 29.1825 19.8686 29.1826C19.6037 29.1827 19.3389 29.1826 19.0741 29.1826C18.8101 29.1826 18.546 29.1826 18.2821 29.1826C18.2447 29.1826 18.2445 29.1825 18.2445 29.1444C18.2445 28.898 18.2445 28.6517 18.2445 28.4052C18.2445 28.3672 18.2447 28.3669 18.2819 28.3669ZM19.8653 30.7073C19.6013 30.7074 19.3372 30.7073 19.0731 30.7073C18.8099 30.7073 18.5467 30.7073 18.2834 30.7073C18.2445 30.7073 18.2444 30.7072 18.2444 30.6679C18.2443 30.5321 18.2443 30.3963 18.2445 30.2605C18.2445 30.229 18.246 30.2275 18.277 30.2274C18.8076 30.2273 19.3382 30.2273 19.8689 30.2274C19.9014 30.2274 19.9028 30.2288 19.9028 30.2616C19.9028 30.3974 19.9028 30.5332 19.9028 30.669C19.9028 30.707 19.9025 30.7073 19.8653 30.7073Z" fill="white"/>
<path d="M18.5617 29.5242V29.6487H18.7769V29.7447H18.5617V29.8692H18.8009V29.9652H18.4604V29.4282H18.8009V29.5242L18.5617 29.5242Z" fill="white"/>
<path d="M18.894 29.9652V29.4282H19.083C19.1085 29.4282 19.1324 29.4324 19.1546 29.4406C19.1769 29.4488 19.1962 29.4605 19.2128 29.4755C19.2293 29.4905 19.2423 29.5083 19.2518 29.5291C19.2613 29.5499 19.266 29.5728 19.266 29.5977C19.266 29.6232 19.2612 29.6464 19.2518 29.6671C19.2423 29.6878 19.2293 29.7057 19.2128 29.7208C19.1962 29.7358 19.1769 29.7474 19.1546 29.7556C19.1324 29.7639 19.1085 29.768 19.083 29.768H18.9953V29.9653H18.894V29.9652ZM19.0845 29.6719C19.111 29.6719 19.131 29.6644 19.1445 29.6494C19.158 29.6345 19.1648 29.6172 19.1648 29.5977C19.1648 29.5882 19.1631 29.5789 19.1599 29.5699C19.1566 29.561 19.1516 29.5531 19.1448 29.5463C19.1381 29.5396 19.1297 29.5342 19.1197 29.5302C19.1097 29.5262 19.0979 29.5242 19.0844 29.5242H18.9952V29.6719H19.0845Z" fill="white"/>
<path d="M19.502 29.9773C19.479 29.9773 19.457 29.974 19.436 29.9676C19.415 29.9611 19.3957 29.9513 19.3783 29.9383C19.3608 29.9253 19.3455 29.9094 19.3325 29.8907C19.3195 29.872 19.3092 29.8501 19.3018 29.8251L19.397 29.7876C19.404 29.8146 19.4163 29.837 19.4338 29.8548C19.4513 29.8725 19.4743 29.8814 19.5028 29.8814C19.5133 29.8814 19.5234 29.8801 19.5332 29.8773C19.543 29.8746 19.5517 29.8705 19.5595 29.8653C19.5672 29.8601 19.5733 29.8534 19.5778 29.8454C19.5823 29.8374 19.5846 29.8282 19.5846 29.8177C19.5846 29.8077 19.5829 29.7987 19.5794 29.7907C19.5759 29.7828 19.57 29.7753 19.5618 29.7682C19.5536 29.7612 19.5428 29.7545 19.5296 29.7479C19.5163 29.7415 19.4999 29.7347 19.4804 29.7277L19.4474 29.7157C19.4329 29.7107 19.4183 29.7039 19.4036 29.6954C19.3888 29.6869 19.3754 29.6767 19.3634 29.6647C19.3515 29.6527 19.3415 29.6386 19.3338 29.6223C19.326 29.6061 19.3222 29.5877 19.3222 29.5673C19.3222 29.5462 19.3263 29.5267 19.3345 29.5084C19.3428 29.4901 19.3545 29.4742 19.3698 29.4604C19.385 29.4466 19.4033 29.4359 19.4245 29.4281C19.4457 29.4204 19.4694 29.4165 19.4954 29.4165C19.5224 29.4165 19.5457 29.4201 19.5655 29.4274C19.5852 29.4347 19.602 29.4439 19.6157 29.4551C19.6295 29.4663 19.6405 29.4788 19.6491 29.4923C19.6576 29.5058 19.6639 29.5185 19.6679 29.5305L19.5787 29.568C19.5736 29.553 19.5645 29.5395 19.5513 29.5275C19.538 29.5155 19.5198 29.5095 19.4969 29.5095C19.4749 29.5095 19.4567 29.5146 19.4422 29.5248C19.4277 29.5351 19.4204 29.5485 19.4204 29.5649C19.4204 29.5809 19.4274 29.5946 19.4414 29.6058C19.4554 29.617 19.4777 29.6279 19.5082 29.6385L19.5419 29.6497C19.5634 29.6572 19.5831 29.6658 19.6008 29.6756C19.6186 29.6853 19.6338 29.6969 19.6466 29.7105C19.6593 29.724 19.6691 29.7394 19.6758 29.7566C19.6826 29.7738 19.686 29.7937 19.686 29.8162C19.686 29.8442 19.6803 29.8684 19.6691 29.8886C19.6579 29.9088 19.6435 29.9254 19.626 29.9385C19.6084 29.9515 19.5887 29.9613 19.5667 29.9677C19.5445 29.974 19.523 29.9773 19.502 29.9773Z" fill="white"/>
<path d="M21.855 29.8635L22.1273 29.5245H21.867V29.4285H22.245V29.5305L21.9757 29.8694H22.248V29.9655H21.855L21.855 29.8635Z" fill="white"/>
<path d="M22.332 29.4285H22.4333V29.9655H22.332V29.4285Z" fill="white"/>
<path d="M22.541 29.9655V29.4285H22.73C22.7555 29.4285 22.7794 29.4326 22.8016 29.4408C22.8238 29.4491 22.8432 29.4607 22.8597 29.4757C22.8763 29.4908 22.8892 29.5086 22.8988 29.5294C22.9083 29.5501 22.913 29.573 22.913 29.598C22.913 29.6235 22.9082 29.6466 22.8988 29.6674C22.8892 29.6881 22.8763 29.706 22.8597 29.721C22.8432 29.736 22.8238 29.7477 22.8016 29.7559C22.7794 29.7641 22.7555 29.7683 22.73 29.7683H22.6423V29.9655H22.541V29.9655ZM22.7316 29.6722C22.758 29.6722 22.7781 29.6646 22.7915 29.6497C22.8051 29.6347 22.8118 29.6174 22.8118 29.5979C22.8118 29.5884 22.8102 29.5792 22.8069 29.5702C22.8036 29.5612 22.7987 29.5533 22.7919 29.5466C22.7851 29.5399 22.7768 29.5345 22.7667 29.5305C22.7567 29.5265 22.7449 29.5244 22.7315 29.5244H22.6423V29.6722H22.7316Z" fill="white"/>
</g>
<g opacity="0.61">
<path d="M20.4092 29.4622H21.0257V29.6146H20.4092V29.4622ZM20.4092 29.725H21.0257V29.8776H20.4092V29.725Z" fill="white"/>
</g>
<g opacity="0.61">
<path d="M10.6597 32.5635H10.7689C10.8548 32.5635 10.9127 32.6187 10.9127 32.6977C10.9127 32.7767 10.8548 32.8319 10.7689 32.8319H10.6597V32.5635ZM10.7674 32.8073C10.8387 32.8073 10.8847 32.7621 10.8847 32.6977C10.8847 32.6333 10.8386 32.588 10.7674 32.588H10.688V32.8073H10.7674Z" fill="white"/>
<path d="M11.2295 32.6978C11.2295 32.6196 11.2893 32.5613 11.3706 32.5613C11.4511 32.5613 11.5113 32.6191 11.5113 32.6978C11.5113 32.7764 11.4511 32.8342 11.3706 32.8342C11.2893 32.8342 11.2295 32.776 11.2295 32.6978ZM11.4829 32.6978C11.4829 32.6337 11.435 32.5866 11.3706 32.5866C11.3058 32.5866 11.2575 32.6337 11.2575 32.6978C11.2575 32.7617 11.3058 32.8089 11.3706 32.8089C11.4351 32.8089 11.4829 32.7618 11.4829 32.6978Z" fill="white"/>
<path d="M12.2129 32.5635L12.1224 32.8319H12.0925L12.0139 32.603L11.935 32.8319H11.9055L11.8149 32.5635H11.8441L11.9216 32.7943L12.0017 32.5635H12.0281L12.1071 32.7954L12.1857 32.5635H12.2129Z" fill="white"/>
<path d="M12.7658 32.5635V32.8319H12.7424L12.5699 32.6141V32.8319H12.5415V32.5635H12.5649L12.7378 32.7813V32.5635H12.7658Z" fill="white"/>
<path d="M13.1304 32.5635H13.1587V32.8073H13.309V32.8319H13.1304V32.5635Z" fill="white"/>
<path d="M13.6045 32.6978C13.6045 32.6196 13.6643 32.5613 13.7456 32.5613C13.8261 32.5613 13.8863 32.6191 13.8863 32.6978C13.8863 32.7764 13.8261 32.8342 13.7456 32.8342C13.6643 32.8342 13.6045 32.776 13.6045 32.6978ZM13.8579 32.6978C13.8579 32.6337 13.81 32.5866 13.7456 32.5866C13.6808 32.5866 13.6325 32.6337 13.6325 32.6978C13.6325 32.7617 13.6808 32.8089 13.7456 32.8089C13.81 32.8089 13.8579 32.7618 13.8579 32.6978Z" fill="white"/>
<path d="M14.3915 32.7602H14.2419L14.2097 32.8319H14.1802L14.3028 32.5635H14.3309L14.4535 32.8319H14.4236L14.3915 32.7602ZM14.3811 32.7372L14.3167 32.5931L14.2523 32.7372H14.3811Z" fill="white"/>
<path d="M14.7754 32.5635H14.8847C14.9706 32.5635 15.0284 32.6187 15.0284 32.6977C15.0284 32.7767 14.9706 32.8319 14.8847 32.8319H14.7754V32.5635ZM14.8831 32.8073C14.9544 32.8073 15.0004 32.7621 15.0004 32.6977C15.0004 32.6333 14.9544 32.588 14.8831 32.588H14.8037V32.8073H14.8831Z" fill="white"/>
<path d="M15.9149 32.7602H15.7654L15.7331 32.8319H15.7036L15.8263 32.5635H15.8543L15.977 32.8319H15.9471L15.9149 32.7602ZM15.9046 32.7372L15.8402 32.5931L15.7758 32.7372H15.9046Z" fill="white"/>
<path d="M16.2988 32.5635H16.3272V32.8073H16.4775V32.8319H16.2988V32.5635Z" fill="white"/>
<path d="M16.8018 32.5635H16.8301V32.8073H16.9804V32.8319H16.8018V32.5635Z" fill="white"/>
<path d="M17.711 32.5882V32.6937H17.8498V32.7182H17.711V32.8321H17.6826V32.5637H17.8666V32.5883L17.711 32.5882Z" fill="white"/>
<path d="M18.2021 32.5635H18.2305V32.8319H18.2021V32.5635Z" fill="white"/>
<path d="M18.5952 32.5635H18.6236V32.8073H18.7739V32.8319H18.5952V32.5635Z" fill="white"/>
<path d="M19.2879 32.8073V32.8319H19.0981V32.5635H19.2822V32.588H19.1265V32.6835H19.2653V32.7076H19.1265V32.8073H19.2879Z" fill="white"/>
<path d="M20.0381 32.5882V32.6937H20.1769V32.7182H20.0381V32.8321H20.0098V32.5637H20.1938V32.5883L20.0381 32.5882Z" fill="white"/>
<path d="M20.5024 32.6978C20.5024 32.6196 20.5622 32.5613 20.6435 32.5613C20.7241 32.5613 20.7842 32.6191 20.7842 32.6978C20.7842 32.7764 20.7241 32.8342 20.6435 32.8342C20.5622 32.8342 20.5024 32.776 20.5024 32.6978ZM20.7558 32.6978C20.7558 32.6337 20.7079 32.5866 20.6435 32.5866C20.5787 32.5866 20.5304 32.6337 20.5304 32.6978C20.5304 32.7617 20.5787 32.8089 20.6435 32.8089C20.7079 32.8089 20.7558 32.7618 20.7558 32.6978Z" fill="white"/>
<path d="M21.3083 32.8319L21.2469 32.7456C21.24 32.7463 21.2331 32.7467 21.2254 32.7467H21.1534V32.8319H21.125V32.5635H21.2254C21.2937 32.5635 21.3351 32.598 21.3351 32.6555C21.3351 32.6976 21.3129 32.7272 21.2738 32.7398L21.3393 32.8318H21.3083V32.8319ZM21.3067 32.6555C21.3067 32.6125 21.2783 32.588 21.2246 32.588H21.1534V32.7226H21.2246C21.2783 32.7226 21.3067 32.6976 21.3067 32.6555Z" fill="white"/>
<path d="M21.9579 32.5635V32.8319H21.9307V32.6172L21.8253 32.7978H21.8119L21.7064 32.6184V32.8319H21.6792V32.5635H21.7026L21.8191 32.7624L21.9345 32.5635L21.9579 32.5635Z" fill="white"/>
<path d="M22.491 32.7602H22.3415L22.3093 32.8319H22.2798L22.4025 32.5635H22.4304L22.5531 32.8319H22.5232L22.491 32.7602ZM22.4807 32.7372L22.4163 32.5931L22.3519 32.7372H22.4807Z" fill="white"/>
<path d="M22.9132 32.588H22.8188V32.5635H23.0359V32.588H22.9416V32.8319H22.9132V32.588H22.9132Z" fill="white"/>
<path d="M23.3286 32.7993L23.3398 32.7775C23.3589 32.7963 23.3931 32.8101 23.4283 32.8101C23.4786 32.8101 23.5004 32.789 23.5004 32.7626C23.5004 32.6889 23.3351 32.7342 23.3351 32.6349C23.3351 32.5954 23.3658 32.5613 23.4341 32.5613C23.4644 32.5613 23.4958 32.5701 23.5173 32.5851L23.5077 32.6077C23.4847 32.5928 23.4579 32.5855 23.4341 32.5855C23.385 32.5855 23.3632 32.6073 23.3632 32.6342C23.3632 32.7078 23.5284 32.6633 23.5284 32.7611C23.5284 32.8006 23.497 32.8343 23.4283 32.8343C23.388 32.8342 23.3485 32.82 23.3286 32.7993Z" fill="white"/>
</g>
<path d="M17.0923 32.1341C16.8776 32.1341 16.674 32.1252 16.4869 32.108C14.2855 31.9015 12.3047 31.0721 10.9091 29.7725C9.35945 28.3293 8.56521 26.3642 8.61233 24.0897C8.68965 20.3457 10.6355 17.6731 14.0915 16.5644C14.6583 16.3825 15.2349 16.2903 15.8054 16.2903C16.5292 16.2903 17.2532 16.4351 18.0186 16.7332C18.4991 16.9203 18.8218 17.222 18.9775 17.63C19.2851 18.4358 18.8248 19.3576 18.8051 19.3965L17.8506 21.3911L17.8126 20.9044C17.8125 20.9031 17.8027 20.7834 17.7559 20.6018C17.6018 20.0048 17.0043 18.6161 14.7881 18.6161C13.6847 18.6161 12.7889 18.9672 12.1256 19.6594C10.7078 21.1391 10.8006 23.7105 10.8017 23.7363C11.2671 30.5039 16.8433 30.5818 17.0804 30.5818L17.0962 30.581C17.1074 30.5802 17.1187 30.5795 17.1298 30.5795H17.2608V32.1333L17.0923 32.1341Z" fill="white"/>
<path d="M15.8054 16.4211C16.6549 16.4211 17.3843 16.6267 17.971 16.8552C19.6231 17.4982 18.6882 19.337 18.6882 19.337L17.943 20.8942C17.943 20.8942 17.9335 20.7662 17.8827 20.569C17.7132 19.912 17.0809 18.4851 14.788 18.4851C10.4424 18.4851 10.6708 23.7419 10.6708 23.7419C11.1476 30.6762 16.9577 30.7127 17.0803 30.7127C17.0816 30.7127 17.0823 30.7127 17.0823 30.7127C17.098 30.7127 17.114 30.7104 17.1297 30.7104V32.003C17.1172 32.003 17.1049 32.003 17.0924 32.003C16.8867 32.003 16.6874 31.9951 16.4989 31.9777C12.2706 31.581 8.64437 28.8666 8.74331 24.0923C8.82892 19.9473 11.1876 17.6335 14.1316 16.689C14.7304 16.4968 15.2899 16.4211 15.8054 16.4211ZM15.8054 16.1592C15.2213 16.1592 14.6312 16.2535 14.0515 16.4395C10.5382 17.5667 8.56005 20.2826 8.48151 24.0868C8.43357 26.3997 9.24222 28.3989 10.82 29.8683C12.2365 31.1875 14.2447 32.0292 16.4745 32.2384C16.6654 32.256 16.8732 32.2648 17.0925 32.2648L17.131 32.2648L17.3917 32.2636V32.0028V30.7102V30.4483H17.1297C17.1154 30.4483 17.1009 30.4491 17.0864 30.4502C17.0858 30.4502 17.0851 30.4502 17.0844 30.4502C16.8189 30.4502 11.3881 30.3564 10.932 23.7237C10.9313 23.7052 10.8422 21.1867 12.2209 19.7489C12.8585 19.084 13.7222 18.7468 14.788 18.7468C16.8363 18.7468 17.4472 19.9294 17.6291 20.6343C17.6725 20.8026 17.6819 20.9133 17.682 20.9144L17.7607 21.8808L18.1793 21.0071L18.9245 19.4498C18.9426 19.4145 19.4279 18.4425 19.0999 17.583C18.9305 17.139 18.5826 16.8119 18.066 16.6109C17.2853 16.307 16.5458 16.1592 15.8054 16.1592Z" fill="white"/>
<path d="M17.0158 29.7534C16.5562 29.7534 16.3831 29.3152 15.8094 27.8634L15.7332 27.6707L7.83175 7.90142C7.11728 6.08256 6.651 5.7971 5.59557 5.49572C5.13039 5.37128 4.60393 5.37128 4.40578 5.37128C4.16241 5.37128 4.01709 5.23786 4.01709 5.01428C4.01709 4.65803 4.55443 4.65803 4.98609 4.65803C6.02085 4.65803 7.18691 4.70127 7.95844 4.72983C8.33536 4.74384 8.63307 4.75486 8.75961 4.75486C8.86597 4.75486 9.10968 4.7435 9.41813 4.72915C10.0266 4.7008 10.946 4.65803 11.7593 4.65803C12.2439 4.65803 12.7608 4.68557 12.7608 5.01428C12.7608 5.25119 12.6083 5.37128 12.3075 5.37128C11.9039 5.37128 11.3839 5.41072 11.135 5.52149C10.8342 5.65817 10.7934 5.86387 10.7934 6.04693C10.7934 6.43602 11.1835 7.44956 11.635 8.62318L11.6556 8.67662L17.7338 24.8854C19.7022 20.2833 23.8364 9.47644 24.5016 7.29847C24.6244 6.93229 24.7865 6.41501 24.7865 6.11119C24.7865 5.97668 24.7534 5.64892 24.4482 5.49096C24.0821 5.37121 23.6147 5.37121 23.2727 5.37121C22.9504 5.37121 22.7869 5.262 22.7869 5.04658C22.7869 4.65796 23.2927 4.65796 23.6273 4.65796C24.4639 4.65796 25.3681 4.69794 26.0283 4.72711C26.3778 4.74255 26.654 4.75479 26.7878 4.75479C26.8448 4.75479 27.029 4.74493 27.2619 4.73249C27.7838 4.70468 28.6569 4.65796 29.304 4.65796C29.4719 4.65796 29.9827 4.65796 29.9827 5.01421C29.9827 5.25112 29.8085 5.37121 29.4647 5.37121C29.2428 5.37121 28.5677 5.37121 27.9869 5.73794C27.6001 6.0062 27.1198 6.55421 26.2645 8.70756C25.9852 9.41789 24.9225 11.9777 23.6919 14.9417L22.6513 17.4492L22.3401 18.1942C20.5127 22.5685 19.1922 25.7291 18.4893 27.2272C18.2701 27.6964 18.0966 28.0823 17.9548 28.3973C17.474 29.4661 17.3449 29.7534 17.0158 29.7534Z" fill="white"/>
<path d="M29.3042 4.78904C29.6589 4.78904 29.8519 4.8535 29.8519 5.01432C29.8519 5.17609 29.723 5.24042 29.4648 5.24042C29.2398 5.24042 28.53 5.24042 27.9172 5.62734C27.498 5.9179 27.014 6.46632 26.143 8.65946C25.788 9.56236 24.1759 13.4326 22.5307 17.3992C20.5632 22.108 19.1123 25.5917 18.3709 27.1717C17.4675 29.1061 17.3389 29.6224 17.0159 29.6224C16.629 29.6224 16.4679 29.1709 15.8552 27.6226L7.95358 7.85278C7.24421 6.0469 6.76045 5.69208 5.63172 5.36976C5.14777 5.24035 4.59969 5.24035 4.40595 5.24035C4.21277 5.24035 4.14817 5.14366 4.14817 5.01425C4.14817 4.821 4.47028 4.78897 4.98627 4.78897C6.53463 4.78897 8.37287 4.8858 8.75979 4.8858C9.08245 4.8858 10.5336 4.78897 11.7595 4.78897C12.3398 4.78897 12.63 4.85343 12.63 5.01425C12.63 5.17602 12.533 5.24035 12.3077 5.24035C11.9528 5.24035 11.3722 5.27279 11.0819 5.40185C10.7271 5.56301 10.6626 5.8208 10.6626 6.04697C10.6626 6.46632 11.0496 7.46592 11.5335 8.72372L17.7256 25.2363C19.5962 20.9149 23.918 9.65872 24.627 7.33686C24.7894 6.85324 24.9176 6.40152 24.9176 6.1113C24.9176 5.8531 24.8211 5.53098 24.4988 5.36982C24.1113 5.24042 23.6274 5.24042 23.2728 5.24042C23.0794 5.24042 22.9181 5.20819 22.9181 5.04669C22.9181 4.8535 23.1118 4.78904 23.6274 4.78904C24.9176 4.78904 26.4012 4.88587 26.7879 4.88587C26.9817 4.88587 28.3681 4.78904 29.3042 4.78904ZM29.3042 4.52717C28.6537 4.52717 27.7783 4.57395 27.2552 4.6019C27.0332 4.61373 26.8415 4.624 26.7879 4.624C26.6569 4.624 26.3821 4.61183 26.0343 4.59646C25.3729 4.56722 24.467 4.52717 23.6274 4.52717C23.288 4.52717 22.6561 4.52717 22.6561 5.04669C22.6561 5.21682 22.7362 5.50229 23.2728 5.50229C23.6027 5.50229 24.0524 5.50229 24.3971 5.61211C24.6217 5.73424 24.6557 5.97604 24.6557 6.11123C24.6557 6.39547 24.4977 6.89921 24.3788 7.25349C23.7263 9.38978 19.7544 19.781 17.7416 24.533L11.7788 8.63172L11.7577 8.57684C11.3107 7.41506 10.9246 6.41172 10.9246 6.0469C10.9246 5.87037 10.9691 5.74076 11.1903 5.64026C11.4189 5.5386 11.9355 5.50222 12.3078 5.50222C12.835 5.50222 12.8919 5.16093 12.8919 5.01425C12.8919 4.5271 12.183 4.5271 11.7595 4.5271C10.9431 4.5271 10.0219 4.57001 9.41225 4.59836C9.10543 4.61264 8.86308 4.62393 8.75979 4.62393C8.63569 4.62393 8.33901 4.61292 7.96344 4.59904C7.19089 4.57042 6.0234 4.5271 4.98627 4.5271C4.52203 4.5271 3.88623 4.5271 3.88623 5.01425C3.88623 5.31073 4.09023 5.50222 4.40595 5.50222C4.58092 5.50222 5.11336 5.50222 5.56406 5.62278C6.57012 5.91008 7.01722 6.18548 7.7098 7.94852L15.6119 27.7197L15.6878 27.9117C16.2867 29.427 16.4675 29.8843 17.0159 29.8843C17.4298 29.8843 17.5793 29.5521 18.0744 28.4513C18.2148 28.1393 18.3894 27.751 18.6082 27.2825C19.3125 25.7817 20.634 22.6184 22.4631 18.2403L22.7723 17.5001C23.1263 16.6467 23.4785 15.7983 23.817 14.983C25.0459 12.0228 26.1072 9.46628 26.3868 8.7552C27.2254 6.64367 27.6879 6.1066 28.0618 5.84569C28.6096 5.50222 29.2529 5.50222 29.4648 5.50222C30.0506 5.50222 30.1138 5.16093 30.1138 5.01425C30.1138 4.69105 29.8414 4.52717 29.3042 4.52717Z" fill="white"/>
<path d="M16.9988 30.5805L17.1285 30.5794C20.0079 30.5524 22.2994 28.1038 23.1089 26.8128C23.7235 25.8335 24.2487 23.9593 23.7067 21.8999C23.0278 19.3205 20.9366 17.068 17.4909 15.2049L17.4799 15.1989L16.2754 14.2085C13.03 11.5449 12.7778 7.84344 12.7778 6.77244C12.7778 3.79119 14.9856 1.86475 18.4025 1.86475C19.3417 1.86475 20.1355 1.95015 20.9008 2.13369C21.4165 2.24269 21.6084 2.26282 21.7995 2.26282C21.9836 2.26282 22.1949 2.29886 22.1949 2.57977C22.1949 2.60955 22.1901 2.67483 22.1822 2.77758C22.154 3.13669 22.0883 3.97744 22.0883 5.39279C22.0883 5.67009 22.0883 6.13399 21.7725 6.13399C21.4865 6.13399 21.4523 5.85716 21.4298 5.6739C21.4043 5.35845 21.2468 4.6641 21.0999 4.39353C20.8808 3.99124 20.1303 3.05536 17.8976 3.05536C16.0237 3.05536 14.7647 4.23992 14.7647 6.00302C14.7647 7.74205 15.7479 9.28565 17.9525 11.0079L18.6864 11.5848C22.7955 13.7627 25.3742 16.5464 26.3509 19.8588C27.2598 22.9411 26.4768 25.595 25.8709 26.6772C25.3554 27.5981 23.9646 29.4798 22.0218 30.6914C20.5615 31.6017 18.7785 32.1275 17.1304 32.1339L16.999 32.1345V30.5805H16.9988Z" fill="white"/>
<path d="M18.4026 1.99575C19.437 1.99575 20.2061 2.10183 20.8705 2.26109C21.3735 2.36751 21.586 2.39376 21.7995 2.39376C22.012 2.39376 22.0642 2.44714 22.0642 2.57981C22.0642 2.71213 21.9575 3.58777 21.9575 5.39276C21.9575 5.81722 21.905 6.00306 21.7726 6.00306C21.613 6.00306 21.586 5.8704 21.5598 5.6579C21.5342 5.33938 21.3736 4.62314 21.215 4.33108C21.0561 4.03915 20.3392 2.92443 17.8977 2.92443C16.0671 2.92443 14.6338 4.06561 14.6338 6.00306C14.6338 7.51565 15.3241 9.1208 17.872 11.1112L18.6149 11.6952C28.5438 16.9518 26.9232 24.5303 25.7568 26.6134C25.2237 27.5656 23.8575 29.3926 21.9527 30.5805C20.374 31.5645 18.5681 31.9976 17.1299 32.0031V30.7105C19.9838 30.6839 22.3231 28.3132 23.2201 26.8825C24.3384 25.1006 25.6964 19.4929 17.5536 15.09L16.3589 14.1076C13.5463 11.7992 12.909 8.57714 12.909 6.77262C12.9088 3.93314 15.0319 1.99575 18.4026 1.99575ZM18.4026 1.73389C16.6962 1.73389 15.2494 2.21417 14.2185 3.12292C13.1904 4.02923 12.647 5.29124 12.647 6.77248C12.647 7.85804 12.9027 11.6097 16.1926 14.3099L17.387 15.2921L17.4066 15.3082L17.4288 15.3202C20.8413 17.1654 22.911 19.3904 23.5802 21.9334C24.1115 23.9523 23.5987 25.7862 22.9981 26.7432C22.2018 28.0133 19.9501 30.4221 17.1274 30.4485L16.8679 30.4509V30.7104V32.003V32.2659L17.1308 32.2649C18.8024 32.2585 20.6103 31.7256 22.0911 30.8027C23.9286 29.6567 25.3373 27.8986 25.9852 26.7412C26.6011 25.6412 27.3977 22.9459 26.4766 19.8219C25.4904 16.4771 22.8938 13.669 18.7581 11.4748L18.0338 10.9053C15.2522 8.73245 14.8956 7.1441 14.8956 6.00306C14.8956 4.31829 16.102 3.1863 17.8975 3.1863C20.06 3.1863 20.777 4.07445 20.9849 4.45627C21.122 4.70896 21.2752 5.38698 21.2986 5.67884L21.2991 5.68441L21.2998 5.68999C21.3228 5.87658 21.3708 6.26493 21.7725 6.26493C22.2193 6.26493 22.2193 5.67585 22.2193 5.39276C22.2193 3.98258 22.2847 3.14536 22.3127 2.78782C22.3213 2.67847 22.326 2.61823 22.326 2.57981C22.326 2.37547 22.2346 2.13189 21.7994 2.13189C21.6174 2.13189 21.4322 2.11224 20.9246 2.00487C20.1559 1.82052 19.3523 1.73389 18.4026 1.73389Z" fill="white"/>
<path d="M17.0824 30.7127C17.0824 30.7127 16.0658 30.7175 14.8409 30.2288L14.2563 31.5261C14.9712 31.7526 15.7244 31.9046 16.4991 31.9777C17.2956 32.052 18.2632 31.9692 19.2652 31.714L18.5968 30.4934C18.1128 30.6319 17.6066 30.7127 17.0824 30.7127Z" fill="white"/>
</svg>
