<svg width="96" height="32" viewBox="0 0 96 32" fill="none" xmlns="http://www.w3.org/2000/svg">
<g clip-path="url(#clip0_35_133)">
<path d="M7.04128 13.5524H6.74668L2.32747 2.60251C1.47301 0.491003 0.864241 0.324139 0 0.324139V0H4.71382V0.33392C3.89867 0.33392 3.20149 0.608958 3.70227 1.9151L7.28678 11.2938L10.7928 2.19973C11.3821 0.677622 10.7142 0.294601 9.96793 0.294601V0H13.8177V0.314165C12.8257 0.314165 12.1874 0.923124 11.8142 1.84625L7.04128 13.5524ZM14.9363 13.3954V13.1203C15.7905 13.1203 16.2717 12.5311 16.2717 11.1563V3.9871C16.2717 2.61229 15.7905 2.02308 14.9363 2.02308V1.74805H18.9038V2.02308C18.0493 2.02308 17.5681 2.61229 17.5681 3.9871V11.1563C17.5681 12.5311 18.0493 13.1203 18.9038 13.1203V13.3954H14.9363ZM27.3981 13.5524C23.7645 13.5524 21.4664 10.8911 21.4664 7.64046C21.4664 4.38009 23.8038 1.59096 27.6339 1.59096C28.8418 1.59096 30.3346 1.94445 31.1888 2.40611V4.70404H30.914C30.914 3.65337 29.9122 2.1606 27.3588 2.1606C24.2064 2.1606 22.9494 4.51742 22.9494 7.32611C22.9494 10.125 24.8447 12.9828 27.5552 12.9828C29.5096 12.9828 30.8649 11.9124 31.2675 10.7929L31.5621 10.8911C31.1693 12.3152 29.8238 13.5524 27.3981 13.5524ZM35.8626 13.3954V13.1203C36.7072 13.1203 37.3849 12.5311 37.3849 11.1563V2.36679H35.6564C33.7806 2.36679 33.5155 3.65337 33.5155 4.2817H33.2209V1.76761H42.8451V4.2817H42.5505C42.5505 3.65337 42.2853 2.36679 40.4095 2.36679H38.681V11.1563C38.681 12.5311 39.3586 13.1203 40.2033 13.1203V13.3954H35.8626ZM44.0032 7.61093C44.0032 5.03796 45.8101 1.59096 50.0134 1.59096C53.4213 1.59096 55.9747 4.04617 55.9747 7.5227C55.9747 10.0957 54.1675 13.5427 49.9643 13.5427C46.5566 13.5427 44.0032 11.0875 44.0032 7.61093ZM54.4819 7.95463C54.4819 4.44875 52.2722 2.1606 49.8956 2.1606C47.6073 2.1606 45.496 3.52563 45.496 7.17881C45.496 10.6849 47.7055 12.973 50.0823 12.973C52.3704 12.973 54.4819 11.608 54.4819 7.95463ZM63.8597 10.9599C63.0346 9.57513 62.2096 7.99395 60.9135 7.99395H60.5402L60.5304 11.1563C60.5304 12.5311 61.2081 13.1203 62.0526 13.1203V13.3954H57.9082V13.1203C58.7626 13.1203 59.2439 12.5311 59.2439 11.1563V3.9871C59.2439 2.61229 58.7626 2.02308 57.9082 2.02308V1.74805H61.9544C64.1543 1.76761 65.6077 2.73005 65.6077 4.61562C65.6077 5.99062 64.6255 7.39496 62.9364 7.82708C63.8497 8.19035 64.4587 9.40827 65.0576 10.4492C66.4229 12.7473 67.3164 13.1794 67.9056 13.1203L67.9645 13.3954C67.6308 13.4838 67.0905 13.5524 66.6584 13.5524C65.254 13.5524 64.6255 12.2365 63.8597 10.9599ZM64.3114 4.92997C64.3114 3.26037 63.2114 2.3079 61.3651 2.3079H60.5402V7.4245H61.9544C63.0641 7.4245 64.3114 6.4423 64.3114 4.92997ZM69.4956 13.3954V13.1203C70.3501 13.1203 70.8311 12.5311 70.8311 11.1563V3.9871C70.8311 2.61229 70.3501 2.02308 69.4956 2.02308V1.74805H73.4632V2.02308C72.6087 2.02308 72.1275 2.61229 72.1275 3.9871V11.1563C72.1275 12.5311 72.6087 13.1203 73.4632 13.1203V13.3954H69.4956ZM82.2621 13.3954V13.1105C83.1461 13.1105 83.7744 12.8257 83.2934 11.5098L82.4192 9.09391L78.6776 9.02524L77.9606 11.1759C77.4501 12.6882 78.1277 13.1203 79.0017 13.1203V13.3954H75.152V13.1203C76.026 13.1203 76.6152 12.4625 76.9591 11.5294L80.5927 1.59096H80.8775L84.4325 10.8224C85.2476 12.9337 85.7484 13.1203 86.544 13.1203V13.3954H82.2621ZM82.1837 8.46539L80.4552 3.71225L78.874 8.4556L82.1837 8.46539ZM85.5019 3.75157C86.0125 3.21127 86.2778 2.70071 86.2778 2.32747C86.2778 2.09175 86.15 1.75783 85.8752 1.75783C85.659 1.65963 85.4822 1.44366 85.4822 1.16862C85.4822 0.824923 85.7474 0.392802 86.2582 0.392802C86.7295 0.392802 87.0634 0.834705 87.0634 1.50255C87.0634 2.33725 86.5822 3.01487 85.9143 3.71225L85.6886 3.94797L85.5019 3.75157ZM89.5575 12.8553V10.3019H89.8523C89.8523 11.6571 91.0798 12.973 92.4646 12.973C94.0751 12.973 94.9 11.9124 94.9 10.9499C94.9 10.0073 94.4384 9.16257 92.5037 7.90553C90.5004 6.60936 89.7932 5.44054 89.7932 4.2817C89.7932 2.75959 91.0307 1.59096 92.9752 1.59096C94.0162 1.59096 94.6643 1.77758 95.391 2.0133V4.27192H95.116C95.116 3.14261 94.3697 2.1606 92.7985 2.1606C91.6397 2.1606 90.8146 2.83823 90.8146 3.83001C90.8146 4.85134 91.5021 5.54872 93.3286 6.74669C95.1946 7.9646 96 9.13323 96 10.2823C96 12.207 94.5466 13.5427 92.3271 13.5427C91.404 13.5427 90.1174 13.0419 89.5575 12.8553ZM17.2338 30.4823V27.4378H17.5677C17.5677 29.2743 18.9623 30.6589 20.9756 30.6589C22.6254 30.6589 23.6861 29.7064 23.6861 28.4787C23.6861 27.3101 22.6843 26.112 20.7103 24.904C18.1374 23.2444 17.4991 22.0267 17.4991 20.7401C17.4991 18.8743 18.8936 17.5583 21.2898 17.5583C22.3897 17.5583 23.0969 17.8529 23.8629 18.1475V20.7008H23.5583C23.5583 19.4732 22.6648 18.1475 21.1131 18.1475C19.4435 18.1475 18.4811 19.0609 18.4811 20.2098C18.4811 21.2901 19.4337 22.1544 21.5648 23.5587C23.8529 25.0613 24.7467 26.3772 24.7467 27.8307C24.7467 31.0126 21.447 31.2285 20.5728 31.2285C19.5221 31.2285 17.8623 30.6982 17.2338 30.4823ZM27.2307 31.0715V30.7964C28.085 30.7964 28.5662 30.2072 28.5662 28.8324V21.6632C28.5662 20.2884 28.085 19.6992 27.2307 19.6992V19.4241H34.5961V21.7714H34.3015C34.3015 21.2017 34.1346 20.0429 32.1607 20.0429C32.1607 20.0429 29.8625 20.0134 29.8625 20.0331V24.7469L31.8661 24.7567C33.1427 24.7667 33.182 24.1086 33.2016 23.5292H33.4864L33.4962 26.7013H33.2016C33.182 26.0826 33.1427 25.4639 31.8661 25.3657C31.5222 25.3361 29.8625 25.287 29.8625 25.287V28.8422C29.8625 30.1877 29.9214 30.5216 32.1213 30.5116C33.6926 30.5116 34.4684 29.6867 34.4684 28.626H34.7532V31.0715H27.2307ZM42.9529 31.2285C39.3191 31.2285 37.0212 28.5672 37.0212 25.3166C37.0212 22.0562 39.3585 19.2671 43.1885 19.2671C44.3964 19.2671 45.8892 19.6205 46.7436 20.0822V22.3801H46.4686C46.4686 21.3295 45.467 19.8367 42.9136 19.8367C39.7612 19.8367 38.5042 22.1935 38.5042 25.0022C38.5042 27.8011 40.3995 30.6589 43.11 30.6589C45.0642 30.6589 46.4195 29.5885 46.8223 28.469L47.1169 28.5672C46.7241 29.9913 45.3786 31.2285 42.9529 31.2285ZM55.0019 28.636C54.1769 27.2512 53.352 25.67 52.0557 25.67H51.6824L51.6726 28.8324C51.6726 30.2072 52.3503 30.7964 53.1949 30.7964V31.0715H49.0506V30.7964C49.9048 30.7964 50.3861 30.2072 50.3861 28.8324V21.6632C50.3861 20.2884 49.9048 19.6992 49.0506 19.6992V19.4241H53.0967C55.2965 19.4437 56.7499 20.4062 56.7499 22.2917C56.7499 23.6667 55.7679 25.0711 54.0787 25.5032C54.9921 25.8664 55.6009 27.0844 56.2 28.1253C57.5651 30.4234 58.4588 30.8555 59.048 30.7964L59.1069 31.0715C58.773 31.1599 58.2329 31.2285 57.8008 31.2285C56.3964 31.2285 55.7679 29.9126 55.0019 28.636ZM55.4536 22.6061C55.4536 20.9365 54.3538 19.984 52.5073 19.984H51.6824V25.1006H53.0967C54.2065 25.1006 55.4536 24.1184 55.4536 22.6061ZM60.3826 31.0715V30.7964C61.237 30.7964 61.7182 30.2072 61.7182 28.8324V21.6632C61.7182 20.2884 61.237 19.6992 60.3826 19.6992V19.4241H67.7482V21.7714H67.4536C67.4536 21.2017 67.2865 20.0429 65.3125 20.0429C65.3125 20.0429 63.0146 20.0134 63.0146 20.0331V24.7469L65.0179 24.7567C66.2947 24.7667 66.3341 24.1086 66.3536 23.5292H66.6384L66.6482 26.7013H66.3536C66.3341 26.0826 66.2947 25.4639 65.0179 25.3657C64.6742 25.3361 63.0146 25.287 63.0146 25.287V28.8422C63.0146 30.1877 63.0735 30.5216 65.2734 30.5116C66.8446 30.5116 67.6204 29.6867 67.6204 28.626H67.9053V31.0715H60.3826ZM72.9426 31.0715V30.7964C73.7871 30.7964 74.4647 30.2072 74.4647 28.8324V20.0429H72.7365C70.8607 20.0429 70.5954 21.3295 70.5954 21.9578H70.3008V19.4437H79.925V21.9578H79.6304C79.6304 21.3295 79.3654 20.0429 77.4896 20.0429H75.7611V28.8324C75.7611 30.2072 76.4387 30.7964 77.2834 30.7964V31.0715H72.9426Z" fill="white"/>
</g>
<defs>
<clipPath id="clip0_35_133">
<rect width="96" height="31.2285" fill="white"/>
</clipPath>
</defs>
</svg>
